<?xml version="1.0" standalone="no"?><!DOCTYPE svg PUBLIC "-//W3C//DTD SVG 1.1//EN" "http://www.w3.org/Graphics/SVG/1.1/DTD/svg11.dtd"><svg t="1720948002504" class="icon" viewBox="0 0 1024 1024" version="1.1" xmlns="http://www.w3.org/2000/svg" p-id="32415" xmlns:xlink="http://www.w3.org/1999/xlink" width="32" height="32"><path d="M853.333333 157.866667C727.466667 149.333333 612.266667 106.666667 514.133333 42.666667c-96 64-209.066667 104.533333-332.8 113.066666-21.333333 2.133333-38.4 19.2-38.4 42.666667v392.533333C140.8 789.333333 512 981.333333 512 981.333333s379.733333-196.266667 379.733333-396.8v-384c0-23.466667-17.066667-42.666667-38.4-42.666666zM704 426.666667l-170.666667 164.266666c-10.666667 10.666667-25.6 17.066667-40.533333 17.066667s-29.866667-6.4-42.666667-17.066667l-78.933333-81.066666c-17.066667-17.066667-17.066667-44.8 0-59.733334 17.066667-17.066667 44.8-17.066667 59.733333 0l61.866667 64 153.6-147.2c17.066667-17.066667 44.8-14.933333 59.733333 2.133334 17.066667 12.8 14.933333 40.533333-2.133333 57.6z" fill="#189EF0" p-id="32416"></path></svg>