<?xml version="1.0" standalone="no"?><!DOCTYPE svg PUBLIC "-//W3C//DTD SVG 1.1//EN" "http://www.w3.org/Graphics/SVG/1.1/DTD/svg11.dtd"><svg t="1688916311252" class="icon" viewBox="0 0 1024 1024" version="1.1" xmlns="http://www.w3.org/2000/svg" p-id="3492" xmlns:xlink="http://www.w3.org/1999/xlink" width="32" height="32"><path d="M64 810.666667c0-68.266667 44.8-123.733333 106.666667-142.933334V356.266667c-61.866667-19.2-106.666667-74.666667-106.666667-142.933334 0-83.2 66.133333-149.333333 149.333333-149.333333 68.266667 0 123.733333 44.8 142.933334 106.666667h311.466666c19.2-61.866667 74.666667-106.666667 142.933334-106.666667 83.2 0 149.333333 66.133333 149.333333 149.333333 0 68.266667-44.8 123.733333-106.666667 142.933334v311.466666c61.866667 19.2 106.666667 74.666667 106.666667 142.933334 0 83.2-66.133333 149.333333-149.333333 149.333333-68.266667 0-123.733333-44.8-142.933334-106.666667H356.266667c-19.2 61.866667-74.666667 106.666667-142.933334 106.666667-83.2 0-149.333333-66.133333-149.333333-149.333333z m149.333333-64c-36.266667 0-64 27.733333-64 64s27.733333 64 64 64 64-27.733333 64-64-27.733333-64-64-64zM149.333333 213.333333c0 36.266667 27.733333 64 64 64s64-27.733333 64-64-27.733333-64-64-64-64 27.733333-64 64z m206.933334 42.666667c-14.933333 49.066667-53.333333 85.333333-100.266667 100.266667v311.466666c49.066667 14.933333 85.333333 53.333333 100.266667 100.266667h311.466666c14.933333-49.066667 53.333333-85.333333 100.266667-100.266667V356.266667c-49.066667-14.933333-85.333333-53.333333-100.266667-100.266667H356.266667zM810.666667 149.333333c-36.266667 0-64 27.733333-64 64s27.733333 64 64 64 64-27.733333 64-64-27.733333-64-64-64z m64 661.333334c0-36.266667-27.733333-64-64-64s-64 27.733333-64 64 27.733333 64 64 64 64-27.733333 64-64z" fill="#1296db" p-id="3493"></path></svg>