<?xml version="1.0" standalone="no"?><!DOCTYPE svg PUBLIC "-//W3C//DTD SVG 1.1//EN" "http://www.w3.org/Graphics/SVG/1.1/DTD/svg11.dtd"><svg t="1703989050663" class="icon" viewBox="0 0 1024 1024" version="1.1" xmlns="http://www.w3.org/2000/svg" p-id="4231" xmlns:xlink="http://www.w3.org/1999/xlink" width="32" height="32"><path d="M149.952 734.784v137.216c0 4 14.816 25.92 85.12 47.488 67.968 20.8 158.976 32.32 256.384 32.32h3.68a302.24 302.24 0 0 1-41.088-34.4 297.536 297.536 0 0 1-75.52-126.912c-74.944-6.976-142.912-21.088-193.376-40.192a330.432 330.432 0 0 1-35.2-15.52z m0-90.88c0 3.008 10.592 20.096 60.704 39.104 40.576 15.36 94.944 27.104 156 33.92a297.504 297.504 0 0 1 44-167.936c-76-4.928-145.888-16.768-201.504-34.4a382.72 382.72 0 0 1-59.2-23.776v153.088z m0-243.904c0 3.008 14.08 24.896 81.088 46.08 63.072 20 147.52 31.808 238.816 33.408a297.152 297.152 0 0 1 195.808-72.896c45.6 0 89.664 10.144 129.6 29.344 31.84-15.2 43.776-29.824 43.776-35.936V243.52c-19.2 10.624-42.656 20.192-69.984 28.576-74.592 22.816-173.216 35.392-277.504 35.392-104.32 0-202.88-12.576-277.504-35.488-24.576-7.52-46.016-16-64.096-25.376V400z m749.12 118.464a297.12 297.12 0 0 1 65.792 187.328 297.344 297.344 0 0 1-87.616 211.616 297.792 297.792 0 0 1-152.96 81.888l0.16 0.8c-67.904 15.52-148.48 23.68-232.896 23.68-104.32 0-202.88-12.576-277.504-35.488-38.496-11.776-69.28-25.984-91.52-42.08-36.864-26.592-44.576-55.2-44.576-74.208V155.712h0.096c0-19.104 7.68-47.52 44.48-74.24 22.24-16.064 53.024-30.272 91.52-42.08C288.64 16.64 387.2 4 491.552 4c104.32 0 202.88 12.608 277.504 35.52 38.496 11.776 69.312 25.888 91.52 42.08 36.8 26.688 44.48 55.104 44.48 74.208 0 8.224-1.44 18.176-6.016 28.992v333.664z m-233.408-39.968a227.424 227.424 0 0 0-227.2 227.2c0 125.312 101.888 227.296 227.2 227.296 125.28 0 227.2-101.984 227.2-227.296 0-125.28-101.92-227.2-227.2-227.2z m24.576 364.8c-0.96 0-1.984 0-2.976-0.192a30.08 30.08 0 0 1-22.816-14.496L582.4 690.208l-84.416 73.504a29.952 29.952 0 1 1-39.392-45.216l111.488-97.184a29.92 29.92 0 0 1 45.504 7.296l79.808 134.4 125.984-139.2a30.016 30.016 0 0 1 44.512 40.32l-153.28 169.28a30.4 30.4 0 0 1-22.336 9.92zM491.552 76c-97.408 0-188.384 11.52-256.384 32.32-70.304 21.568-85.12 43.872-85.12 47.36 0 3.52 14.816 25.92 85.12 47.424 68 20.8 158.976 32.32 256.384 32.32 97.408 0 188.416-11.52 256.416-32.32 70.272-21.6 85.088-43.904 85.088-47.392 0-3.52-14.816-25.92-85.12-47.424-67.968-20.8-159.072-32.288-256.384-32.288z" fill="#00D6FF" p-id="4232"></path></svg>