<?xml version="1.0" standalone="no"?><!DOCTYPE svg PUBLIC "-//W3C//DTD SVG 1.1//EN"
  "http://www.w3.org/Graphics/SVG/1.1/DTD/svg11.dtd">
<svg t="1712755972807" class="icon" viewBox="0 0 1024 1024" version="1.1" xmlns="http://www.w3.org/2000/svg"
     p-id="10738" xmlns:xlink="http://www.w3.org/1999/xlink" width="32" height="32">
  <path
    d="M362.016 445.568c86.368 0 138.048-1.664 188.384-23.392 40.032-32.032 93.248-87.2 173.6-110.112V205.536c0-73.92-162.24-133.472-362.016-133.472S-0.032 131.616-0.032 205.536v106.528c0 73.504 161.824 133.472 362.016 133.472z m155.2 306.144c-38.816 5.248-111.488 13.888-155.2 13.888-199.808 0-361.664-59.584-361.664-133.504v160c0 73.472 161.824 133.504 362.016 133.504 75.072 0 110.24-5.728 162.848-16.032-37.536-40.288-51.488-91.52-8-157.888z m-155.2-66.144c38.56 0 147.808-8.704 182.688-12.8 0-0.32 40.096-49.312 44.608-90.4 3.872-35.168-2.304-59.488-16.032-83.52-64.064 20.608-155.84 26.72-211.264 26.72C162.208 525.568 0 466.016 0 392.096v160c0 73.472 161.824 133.472 362.016 133.472z m480.608-19.84a584.448 584.448 0 0 0-96.832 23.424l4.16-1.216c-48.416 15.744-211.936 74.304-219.52 140.736-2.688 22.72 8.736 40.832 24.224 57.76 13.344 14.56 33.184 26.656 59.488 36.256l8.544 2.976c18.752 6.176 39.68 13.184 64.192 16.96 5.216 0.8 9.536 1.536 14.656 2.208l15.616 1.952c32.928 3.616 56.352 4.864 73.44 4.864 7.04 0 27.808 0.736 27.808 0.736s33.984-98.944 34.656-178.368c0.48-58.336 1.248-102.752 1.216-103.2l-0.48-7.328z m-78.656 38.72c28.16-8.896 34.624-8.256 50.272-11.232l-51.488 34.88c0.288-13.504 1.28-17.856 1.216-23.68z m-0.48 58.08c7.232 3.424 15.84 6.592 24.736 8.992l1.12 0.256c9.408 2.688 14.944 4.192 22.464 5.632l-53.696 39.776c2.432-21.408 4.48-36.128 5.376-54.656z m-12.448-54.176c0 7.456-1.28 14.88-1.696 29.28-10.688-6.208-18.4-9.472-27.072-18.528 10.048-3.776 18.912-7.456 28.8-10.752z m39.296 165.696c-14.816 10.144-30.144 19.328-57.856 39.968 6.272-16.896 11.968-31.392 15.616-51.936 15.2 4.384 25.312 8.608 42.208 11.968z m-115.168-136.16c10.784-4.8 20.128-10.752 31.232-15.136 6.976 8 13.088 13.6 27.584 22.688l-63.712 44.896c2.752-19.2 5.472-32.576 4.864-52.448z m71.488 21.952c-1.024 22.336-7.328 43.488-10.72 69.536l-8.992 7.424c-24.832-8.32-38.752-13.152-56.64-21.568 0.064-0.352-2.016-1.344-1.952-1.696z m-195.936 70.816c3.424-30.24 47.68-55.936 105.184-82.976 0.192 21.376-1.696 34.144-5.248 54.592l-2.496 1.696c-26.88-13.632-33.376-20.448-33.728-20.704l-19.264 1.696c11.872 10.08 25.216 19.168 39.424 26.752l1.216 0.576-75.776 51.936c-6.88-11.424-10.976-19.36-9.28-33.632z m71.008 76.128c-24.544-8.928-36.928-17.28-48.8-30.24l72.224-48.8c-9.376 43.424-18.88 67.968-23.424 79.04z m40.992-76.672c15.424 7.168 29.28 14.56 49.536 21.728l-68.096 50.016c6.336-17.184 11.904-40.96 18.56-71.744z m45.376 99.808c-6.88-0.8-10.048-1.344-17.088-2.432-19.584-3.04-25.888-6.88-41.728-11.456l76.864-55.648c1.76 0.576-0.832 0.416 0.96 0.96-5.184 30.048-7.904 49.376-19.04 68.544z m94.208 4.16c-11.488 0.192-38.304 1.376-72.416-1.664 41.28-31.008 65.664-45.856 81.92-56.672 2.784 0.448 3.264 0.8 6.112 1.216-4.704 23.136-7.52 39.936-15.616 57.12z m21.216-86.144c-2.944 1.728-4.576 5.184-12.48 10.304-21.952-3.84-39.424-4.96-58.528-10.528 0.384-2.432 1.376-7.072 1.696-9.504l77.344-56.128a740.288 740.288 0 0 1-8.064 65.856z m11.936-86.88l-5.152 3.584c-15.296-2.176-35.232-4.16-62.688-16.992l68.832-47.84c0.064 16.064 0.544 32.416-0.992 61.248z m-3.904 20.992z m186.432-161.344c-0.704-1.728-18.24-43.232-75.936-84.032a322.56 322.56 0 0 0-32.48-20.288l-1.728-0.864s-6.4-3.552-6.88-3.584a410.24 410.24 0 0 0-76.064-29.888l-3.008-0.736c-57.376-16.16-123.776-23.584-197.376-22.048l-11.584-0.48 11.232 10.496c55.648 60.992 38.56 131.04 20.992 170.56-20.192 45.408-57.568 88.672-58.112 89.472l-26.784 33.024 35.968-23.872c1.088-0.736 95.136-52.256 217.312-82.272 128.16-31.456 197.184-26.432 197.728-26.4l12.896 1.728z m-199.584-121.472c1.28 0.352 1.92 0.608 3.168 0.96 15.968 4.448 22.368 8.32 36.832 14.144l-40.992 21.472c1.056-19.392 1.12-26.976 0.96-36.608z m-19.808-3.904c0.352 13.888-1.28 28.384-2.944 50.752l-8.384 7.744c-17.664-9.056-32.448-11.968-46.528-14.816-6.336-1.28-9.696-1.152-15.36-1.696 0.16-27.008-0.896-47.584-1.216-56.384 28.448 2.848 49.248 8.32 74.432 14.4zM723.2 557.056c5.088 0.576 8.768 0.288 14.4 1.472 12.96 2.656 14.112 3.232 25.888 8.544l-41.952 25.184c1.056-15.68 1.472-20.064 1.696-35.168z m-31.136 114.656c-31.904 13.92-41.408 23.488-59.616 34.24 11.648-19.008 23.392-25.088 30.272-36.864 20-34.144 35.136-37.344 35.136-37.344-6.592 30.72-5.792 39.968-5.792 39.968z m12.864-109.28c-0.448 16.576-1.472 20.192-2.432 32.448-8.896 4.224-9.504 4.896-13.408 5.856 0.736-20.992 4.992-25.408-1.216-46.848 5.376-0.672 6.528 0.128 17.344 0.48-0.064 4.192-0.128 3.744-0.256 8.064z m0-27.552c-13.536-0.448-15.424-1.152-20.992-0.256-7.936-18.784-14.176-31.84-32.704-55.392 23.648-0.128 32.64-0.576 54.656 1.216 0.256 6.784-0.864 26.048-0.992 54.4z m5.376 129.856c4.576-13.568 7.296-30.688 9.28-51.232 15.008-5.568 9.28-8.096 18.56-4.896 13.024 4.512 32.832 15.648 36.832 28.8l0.48 2.688c-24.608 6.592-43.744 15.872-65.152 24.64z m71.232-53.44c-7.328-8-8.544-9.504-19.52-14.4a29.92 29.92 0 0 0-11.648-2.912h-0.064l31.008-19.616c2.88 1.6 4.768 4.288 7.552 6.112-2.496 18.56-1.696 18.528-7.328 30.784z m13.184 22.944c5.6-10.976 8.992-17.152 12.928-42.72 15.776 12 19.872 16.192 32.928 33.92-7.68 1.024-33.568 5.76-45.856 8.736z m18.048-65.888c0.48-4.16 1.568-9.44 1.952-13.888l63.968-31.776c2.592 1.856 5.568 3.648 8.64 5.184l0.384 0.16c-0.96 2.304-21.632 36.128-36.352 73.696-14.88-18.56-23.136-22.592-38.592-33.44z m55.168 52.48l-5.632-7.328 39.52-77.6c45.376 21.728 82.752 70.624 85.184 74.656 0-0.064-92.96 2.368-119.072 10.208z m-251.328-180.896l23.168 0.736s15.296-11.456 21.728-14.88c3.328-1.792 14.4-5.856 14.4-5.856l9.28 14.4 19.52 22.944-17.824-36.608 73.216 19.04-25.376 9.024-21.216 9.024 58.592-14.016 12.768 16.576 20.096 0.608s-12.32-21.664-17.312-28.32c-10.528-13.984-47.392-51.616-47.392-51.616s-49.76 14.336-80.512 26.496c-23.392 9.248-43.168 32.448-43.168 32.448z m126.88-37.568l25.856 32.928-73.728-23.68z"
    fill="#2aa515" p-id="10739"></path>
</svg>
