<?xml version="1.0" standalone="no"?><!DOCTYPE svg PUBLIC "-//W3C//DTD SVG 1.1//EN" "http://www.w3.org/Graphics/SVG/1.1/DTD/svg11.dtd"><svg t="1647157194843" class="icon" viewBox="0 0 1024 1024" version="1.1" xmlns="http://www.w3.org/2000/svg" p-id="25705" xmlns:xlink="http://www.w3.org/1999/xlink" width="32" height="32"><defs><style type="text/css"></style></defs><path d="M555.885714 724.114286c0-73.142857 51.2-124.342857 117.028572-124.342857s117.028571 58.514286 117.028571 124.342857-51.2 131.657143-117.028571 131.657143c-65.828571 0-117.028571-58.514286-117.028572-131.657143z m380.342857 43.885714c-65.828571 109.714286-160.914286 168.228571-263.314285 168.228571s-197.485714-58.514286-263.314286-168.228571c-14.628571-29.257143-14.628571-58.514286 0-87.771429C468.114286 570.514286 570.514286 512 665.6 512c102.4 0 197.485714 58.514286 263.314286 168.228571 21.942857 29.257143 21.942857 65.828571 7.314285 87.771429zM665.6 424.228571c-131.657143 0-248.685714 80.457143-329.142857 204.8-36.571429 58.514286-36.571429 138.971429 0 190.171429C416.914286 943.542857 533.942857 1024 665.6 1024s248.685714-80.457143 329.142857-204.8c36.571429-58.514286 36.571429-138.971429 0-190.171429-80.457143-124.342857-197.485714-204.8-329.142857-204.8zM0 906.971429V117.028571C0 51.2 51.2 0 109.714286 0h731.428571c29.257143 0 58.514286 14.628571 73.142857 36.571429 21.942857 21.942857 36.571429 51.2 36.571429 80.457142v204.8c0 21.942857-21.942857 43.885714-43.885714 43.885715s-36.571429-21.942857-36.571429-43.885715V117.028571c0-14.628571-14.628571-29.257143-29.257143-29.257142h-731.428571c-14.628571 0-29.257143 14.628571-29.257143 29.257142v789.942858c0 14.628571 14.628571 29.257143 29.257143 29.257142h197.485714c21.942857 0 36.571429 21.942857 36.571429 43.885715s-21.942857 43.885714-43.885715 43.885714H109.714286c-29.257143 0-58.514286-14.628571-73.142857-36.571429s-36.571429-51.2-36.571429-80.457142z" p-id="25706" fill="#1296db"></path></svg>