<?xml version="1.0" standalone="no"?><!DOCTYPE svg PUBLIC "-//W3C//DTD SVG 1.1//EN" "http://www.w3.org/Graphics/SVG/1.1/DTD/svg11.dtd"><svg t="1720947453488" class="icon" viewBox="0 0 1024 1024" version="1.1" xmlns="http://www.w3.org/2000/svg" p-id="19857" xmlns:xlink="http://www.w3.org/1999/xlink" width="32" height="32"><path d="M256 256a128 128 0 0 1 225.706667-82.645333 297.045333 297.045333 0 0 1 80.213333-35.072 213.333333 213.333333 0 1 0-281.386667 304.298666A341.504 341.504 0 0 0 42.666667 768a42.666667 42.666667 0 1 0 85.333333 0 256 256 0 0 1 226.218667-254.293333 298.666667 298.666667 0 0 1-8.96-135.68A128.042667 128.042667 0 0 1 256 256z" fill="#1296db" p-id="19858"></path><path d="M640 298.666667a128 128 0 1 0 0 256 128 128 0 0 0 0-256z m-213.333333 128a213.333333 213.333333 0 1 1 316.757333 186.624A341.504 341.504 0 0 1 981.333333 938.666667a42.666667 42.666667 0 1 1-85.333333 0 256 256 0 0 0-512 0 42.666667 42.666667 0 1 1-85.333333 0c0-152.448 99.968-281.6 237.909333-325.376A213.290667 213.290667 0 0 1 426.666667 426.666667z" fill="#1296db" p-id="19859"></path></svg>