<?xml version="1.0" encoding="UTF-8" standalone="no" ?>
<!DOCTYPE svg PUBLIC "-//W3C//DTD SVG 1.1//EN" "http://www.w3.org/Graphics/SVG/1.1/DTD/svg11.dtd">
<svg xmlns="http://www.w3.org/2000/svg" xmlns:xlink="http://www.w3.org/1999/xlink" version="1.1" viewBox="0 0 600 480" xml:space="preserve">

<defs>
</defs>
<g transform="matrix(2.66 0 0 2.66 305.09 162.53)"  >
<linearGradient id="SVGID_6" gradientUnits="userSpaceOnUse" gradientTransform="matrix(1 0 0 1 0 0)"  x1="104.13" y1="9.52" x2="104.13" y2="116.67">
<stop offset="0%" style="stop-color:rgb(40,86,159);stop-opacity: 1"/>
<stop offset="100%" style="stop-color:rgb(52,181,181);stop-opacity: 1"/>
</linearGradient>
<path style="stroke: none; stroke-width: 1; stroke-dasharray: none; stroke-linecap: butt; stroke-dashoffset: 0; stroke-linejoin: miter; stroke-miterlimit: 4; fill: url(#SVGID_6); fill-rule: nonzero; opacity: 1;"  transform=" translate(-104.17, -61.06)" d="M 47.16 90 C 47.16730913760307 61.22461197407368 67.43830098656147 36.434648954339664 95.63919941904152 30.713430808956552 C 123.84009785152155 24.99221266357344 152.16927702104357 39.92248341267364 163.39 66.42000000000002 L 191.2 58.07 C 173.4558976101499 11.785623460832888 121.6266511786796 -11.437731918479948 75.27367557017077 6.12638871074234 C 28.92069996166194 23.690509339964628 5.496126328943973 75.42912519749703 22.879999999999995 121.84999999999998 L 50.33 109.33 C 48.227030554043004 103.102462864249 47.156243621980686 96.57302709239896 47.160000000000004 90.00000000000003 Z" stroke-linecap="round" />
</g>
<g transform="matrix(2.66 0 0 2.66 325.18 376.23)"  >
<linearGradient id="SVGID_7" gradientUnits="userSpaceOnUse" gradientTransform="matrix(1 0 0 1 0 0)"  x1="111.72" y1="108.68" x2="111.72" y2="176.71">
<stop offset="0%" style="stop-color:rgb(115,175,66);stop-opacity: 1"/>
<stop offset="14.000000000000002%" style="stop-color:rgb(126,176,66);stop-opacity: 1"/>
<stop offset="68%" style="stop-color:rgb(161,181,65);stop-opacity: 1"/>
<stop offset="96%" style="stop-color:rgb(175,183,65);stop-opacity: 1"/>
</linearGradient>
<path style="stroke: none; stroke-width: 1; stroke-dasharray: none; stroke-linecap: butt; stroke-dashoffset: 0; stroke-linejoin: miter; stroke-miterlimit: 4; fill: url(#SVGID_7); fill-rule: nonzero; opacity: 1;"  transform=" translate(-111.72, -141.31)" d="M 181.7 102.64 C 168.45999999999998 102.64 163.33999999999997 114.08 163.33999999999997 114.08 L 163.28999999999996 113.78999999999999 C 154.46891362385617 134.42540552432692 134.94852521811274 148.48128198464335 112.58090416383656 150.30365801091057 C 90.2132831095604 152.12603403717776 68.67506865471456 141.4153597037929 56.62999999999997 122.47999999999999 L 27.289999999999967 131.67 C 45.39231248096206 166.29932875834535 83.77172488671408 185.29137329977095 122.2832754762139 178.6774033418443 C 160.79482606571372 172.06343338391764 190.63863837083136 141.35473885661486 196.14999999999998 102.66999999999999 Z" stroke-linecap="round" />
</g>
<g transform="matrix(2.66 0 0 2.66 281.6 246.59)"  >
<linearGradient id="SVGID_8" gradientUnits="userSpaceOnUse" gradientTransform="matrix(1 0 0 1 -95.36 -92.61)"  x1="197.66" y1="54" x2="60.71" y2="100.2">
<stop offset="0%" style="stop-color:rgb(242,194,34);stop-opacity: 1"/>
<stop offset="18%" style="stop-color:rgb(241,186,35);stop-opacity: 1"/>
<stop offset="47%" style="stop-color:rgb(238,164,37);stop-opacity: 1"/>
<stop offset="82%" style="stop-color:rgb(232,128,42);stop-opacity: 1"/>
<stop offset="100%" style="stop-color:rgb(229,106,44);stop-opacity: 1"/>
</linearGradient>
<polygon style="stroke: none; stroke-width: 1; stroke-dasharray: none; stroke-linecap: butt; stroke-dashoffset: 0; stroke-linejoin: miter; stroke-miterlimit: 4; fill: url(#SVGID_8); fill-rule: nonzero; opacity: 1;"  points="95.36,-34.22 57.14,-43.55 -15.09,-14.25 16.2,-6.22 -95.36,43.55 73.2,-8.63 41.08,-16.25 95.36,-34.22 " />
</g>
<g transform="matrix(2.73 0 0 2.73 151.06 432.34)" style=""  >
		<text xml:space="preserve" font-family="WenCang-Regular" font-size="45" font-style="normal" font-weight="normal" style="stroke: none; stroke-width: 1; stroke-dasharray: none; stroke-linecap: butt; stroke-dashoffset: 0; stroke-linejoin: miter; stroke-miterlimit: 4; fill: rgb(50,50,50); fill-rule: nonzero; opacity: 1; white-space: pre;" ></text>
</g>
<g transform="matrix(2.73 0 0 2.73 398.18 515.52)" style=""  >
		<text xml:space="preserve" font-family="WenCang-Regular" font-size="14" font-style="normal" font-weight="normal" style="stroke: none; stroke-width: 1; stroke-dasharray: none; stroke-linecap: butt; stroke-dashoffset: 0; stroke-linejoin: miter; stroke-miterlimit: 4; fill: rgb(50,50,50); fill-rule: nonzero; opacity: 1; white-space: pre;" ></text>
</g>
</svg>