<?xml version="1.0" encoding="utf-8"?>
<!-- Generator: Adobe Illustrator 27.0.0, SVG Export Plug-In . SVG Version: 6.00 Build 0)  -->
<svg version="1.1" id="图层_1" xmlns="http://www.w3.org/2000/svg" xmlns:xlink="http://www.w3.org/1999/xlink" x="0px" y="0px"
	 viewBox="0 0 32 32" style="enable-background:new 0 0 32 32;" xml:space="preserve">


<g>
	  <path  d="M9.34,6.51v16.82H6.63v-7.01H2.81v7.01H0.1V6.51h2.72v6.68h3.82V6.51H9.34z"
              fill="#2acaca" />
        <path  d="M17.22,19.27c0,0.78,0.19,1.14,0.57,1.14c0.13,0,0.18,0,0.21-0.02v2.59c-0.47,0.26-0.84,0.34-1.34,0.34
		c-0.95,0-1.39-0.47-1.6-1.4c-0.5,1.1-1.28,1.62-2.35,1.62c-1.73,0-2.79-1.36-2.79-3.67c0-2.54,1.39-3.9,3.61-3.9
		c0.32,0,0.76,0.04,1.17,0.15v-0.73c0-1.49-0.38-2.18-1.06-2.18c-0.69,0-1.07,0.62-1.23,2l-2.13-0.58c0.41-2.48,1.66-3.82,3.54-3.82
		c2.1,0,3.39,1.62,3.39,4.4V19.27z M14.71,18.49c-0.28-0.11-0.68-0.17-1.04-0.17c-0.76,0-1.25,0.54-1.25,1.47
		c0,0.73,0.38,1.27,1.01,1.27C14.29,21.06,14.71,20.28,14.71,18.49z" fill="#2acaca" />
        <path  d="M19.48,19.12c0.47,1.47,1.06,2.09,1.75,2.09c0.57,0,0.87-0.41,0.87-0.97c0-0.91-0.62-1.25-2.08-1.92
		c-1.53-0.69-2.23-1.64-2.23-3.56c0-2.37,1.26-3.99,3.23-3.99c1.75,0,2.95,1.14,3.32,3.23l-2.01,0.91
		c-0.21-1.16-0.75-1.83-1.41-1.83c-0.51,0-0.79,0.37-0.79,1.01s0.34,1.01,1.33,1.42c1.97,0.8,2.98,1.79,2.98,4.05
		c0,2.48-1.32,4.01-3.46,4.01c-1.67,0-2.95-1.01-3.55-3.34L19.48,19.12z" fill="#2acaca" />
        <path  d="M26.98,12.61c0.48-1.21,1.34-1.79,2.36-1.79c1.5,0,2.66,1.32,2.66,4.18v8.32h-2.5v-7.55
		c0-1.66-0.35-2.24-1.16-2.24c-0.72,0-1.28,0.65-1.28,2.24v7.55h-2.5V6.07h2.5v3.06c0,1.9-0.12,3.04-0.18,3.47H26.98z"
              fill="#2acaca" />
</g>
</svg>
