<?xml version="1.0" encoding="utf-8"?>
<!-- Generator: Adobe Illustrator 27.0.0, SVG Export Plug-In . SVG Version: 6.00 Build 0)  -->
<svg version="1.1" id="图层_1" xmlns="http://www.w3.org/2000/svg" xmlns:xlink="http://www.w3.org/1999/xlink" x="0px" y="0px"
	 viewBox="0 0 32 32" style="enable-background:new 0 0 32 32;" xml:space="preserve">


<g>
	 <path d="M8.92,20.3v3.02h-9V6.51h3.45v13.8H8.92z" fill="#009944" />
        <path d="M13.86,7.58c0,1.31-0.84,2.13-1.84,2.13c-1.01,0-1.79-0.75-1.79-2.13c0-1.34,0.78-2.07,1.79-2.07
		C13.03,5.51,13.86,6.25,13.86,7.58z M13.6,23.32h-3.17V11.03h3.17V23.32z" fill="#009944" />
        <path d="M17.83,19.12c0.6,1.47,1.34,2.09,2.22,2.09c0.73,0,1.1-0.41,1.1-0.97c0-0.91-0.78-1.25-2.65-1.92
		c-1.94-0.69-2.83-1.64-2.83-3.56c0-2.37,1.6-3.99,4.1-3.99c2.22,0,3.74,1.14,4.21,3.23l-2.55,0.91c-0.26-1.16-0.95-1.83-1.79-1.83
		c-0.65,0-1.01,0.37-1.01,1.01s0.43,1.01,1.7,1.42c2.5,0.8,3.78,1.79,3.78,4.05c0,2.48-1.68,4.01-4.4,4.01
		c-2.12,0-3.74-1.01-4.51-3.34L17.83,19.12z" fill="#009944" />
        <path d="M29.37,19.18c0,1.19,0.48,1.6,1.55,1.6c0.33,0,0.69-0.09,0.89-0.17v2.59c-0.56,0.21-1.38,0.34-2.09,0.34
		c-2.01,0-3.43-1.21-3.43-3.77v-6.14h-1.53v-2.59h1.53V9.4l3.07-2.05v3.69h2.29v2.59h-2.29V19.18z" fill="#009944" />
</g>
</svg>
