<?xml version="1.0" standalone="no"?><!DOCTYPE svg PUBLIC "-//W3C//DTD SVG 1.1//EN" "http://www.w3.org/Graphics/SVG/1.1/DTD/svg11.dtd"><svg t="1708769584171" class="icon" viewBox="0 0 1024 1024" version="1.1" xmlns="http://www.w3.org/2000/svg" p-id="15664" xmlns:xlink="http://www.w3.org/1999/xlink" width="32" height="32"><path d="M221.013333 220.288h78.72V794.026667H221.056V305.706667l-78.72 61.866666V282.453333l78.72-62.165333z m395.434667 141.226667c0-76.544-31.829333-141.226667-115.541333-141.226667-67.669333 0-119.296 53.248-119.296 122.069333v49.365334h79.616V346.197333c0-26.794667 15.786667-42.112 39.68-42.112 40.021333 0 40.021333 34.432 40.021333 61.184 0 30.293333 0 45.653333-11.989333 72.362667L385.408 712.106667v76.16h231.082667V708.266667h-143.274667l115.541333-228.864c27.733333-49.408 27.733333-64.725333 27.733334-117.930667z m224.682667 133.205333c43.733333-26.453333 47.786667-41.728 47.786666-118.272 0-68.48-7.850667-91.434667-31.744-117.930667-16.042667-15.274667-43.776-38.229333-87.893333-38.229333-63.573333 0-119.253333 53.248-119.253333 118.229333v45.568h79.658666V338.517333c0-15.274667 11.946667-38.229333 39.68-38.229333 23.893333 0 39.978667 15.317333 39.978667 38.229333V410.88c0 42.069333-16.085333 49.706667-63.957333 49.706667h8.234666v68.565333c51.626667 0 63.616 11.434667 63.616 53.205333v80.298667c0 26.453333-15.786667 45.610667-39.68 45.610667-23.936 0-40.021333-15.317333-40.021333-41.770667v-42.069333h-79.658667v45.909333c0 87.637333 63.872 117.930667 115.541334 117.930667 47.829333 0 75.562667-18.773333 95.701333-49.408 15.786667-22.954667 19.84-42.026667 19.84-114.389334 0-80 0-99.114667-47.829333-129.749333z" fill="#17abe3" p-id="15665"></path></svg>