<?xml version="1.0" standalone="no"?><!DOCTYPE svg PUBLIC "-//W3C//DTD SVG 1.1//EN"
  "http://www.w3.org/Graphics/SVG/1.1/DTD/svg11.dtd">
<svg t="1708780736417" class="icon" viewBox="0 0 1024 1024" version="1.1" xmlns="http://www.w3.org/2000/svg"
     p-id="40089" xmlns:xlink="http://www.w3.org/1999/xlink" width="32" height="32">
  <path
    d="M486.784 375.104h67.2V242.496h88.96V375.04h80.448v72.704h-80.448v236.16c0 10.24 0.256 19.136 0.832 26.56a59.904 59.904 0 0 0 5.44 18.816c3.136 5.12 7.552 9.088 13.248 11.968 5.76 2.304 13.568 3.392 23.424 3.392h18.752a108.16 108.16 0 0 0 18.752-3.392v75.264l-28.928 3.456a239.232 239.232 0 0 1-28.8 1.728c-23.488 0-42.496-2.304-57.088-6.848a82.944 82.944 0 0 1-33.536-21.44 85.504 85.504 0 0 1-16.384-35.904 325.312 325.312 0 0 1-4.736-48.768V447.808H486.784V375.104zM787.392 375.104h83.584v85.568h1.536c2.56-11.968 7.552-23.68 14.848-35.072a163.84 163.84 0 0 1 27.328-30.848 136.32 136.32 0 0 1 35.904-23.04c13.056-5.76 26.304-8.576 39.872-8.576 10.368 0 17.408 0.256 21.056 0.832l12.48 1.728v94.08a204.16 204.16 0 0 0-19.52-2.56 104.128 104.128 0 0 0-18.752-1.664c-15.104 0-29.44 3.392-42.88 10.24-13.056 6.272-24.512 16-34.368 29.12a141.824 141.824 0 0 0-23.488 47.04c-5.696 18.816-8.576 40.512-8.576 65.024v210.496h-88.96V375.04z"
    fill="#ef2d8c" p-id="40090" data-spm-anchor-id="a313x.search_index.0.i33.3c873a810dy9u2" class="selected"></path>
  <path
    d="M97.6 613.76c0 23.424 3.648 43.392 10.88 59.968 7.36 16.512 17.472 30.208 30.528 41.024 12.992 10.24 27.84 17.984 44.48 23.104 17.152 4.608 35.648 6.848 55.424 6.848 21.376 0 39.552-2.56 54.656-7.68 15.104-5.76 27.328-12.8 36.736-21.376 9.344-8.576 16.128-18.24 20.288-29.12a99.2 99.2 0 0 0 6.272-34.176c0-23.424-4.992-40.512-14.848-51.392a78.208 78.208 0 0 0-31.232-23.936 561.92 561.92 0 0 0-69.504-22.272c-26.048-7.36-58.304-16.768-96.832-28.16a211.968 211.968 0 0 1-60.16-26.56 156.736 156.736 0 0 1-37.44-37.632 142.912 142.912 0 0 1-20.288-43.648 203.712 203.712 0 0 1-5.504-47.104c0-30.72 5.76-57.28 17.216-79.552a169.6 169.6 0 0 1 46.848-56.448c19.2-14.848 41.088-25.664 65.6-32.512A254.464 254.464 0 0 1 224.896 192c29.12 0 56.448 4.288 81.92 12.8 26.048 8 48.704 20.288 67.968 36.8 19.84 16.576 35.392 37.12 46.848 61.632 11.52 23.936 17.216 51.904 17.216 83.84H341.248c-2.624-39.36-14.848-67.008-36.736-83.008-21.824-16.512-49.728-24.768-83.52-24.768-11.52 0-23.168 1.408-35.2 4.224a93.184 93.184 0 0 0-32.768 12.864 74.24 74.24 0 0 0-24.96 23.936 72.96 72.96 0 0 0-9.408 38.528c0 21.696 6.016 38.784 17.984 51.328 12.48 11.968 28.608 21.12 48.384 27.392 2.112 0.576 10.24 3.136 24.256 7.68a3401.664 3401.664 0 0 1 99.904 29.12c17.216 4.544 29.44 8 36.736 10.24 18.176 6.272 34.048 14.848 47.616 25.664 13.504 10.88 24.704 23.424 33.6 37.696 9.344 13.632 16.128 28.48 20.288 44.48 4.672 16 7.04 31.936 7.04 47.872 0 34.24-6.528 63.616-19.52 88.128a169.984 169.984 0 0 1-49.984 59.072 203.52 203.52 0 0 1-71.04 33.344 300.352 300.352 0 0 1-81.28 11.136c-31.68 0-61.632-4.288-89.728-12.8a203.392 203.392 0 0 1-73.408-39.424 191.232 191.232 0 0 1-49.984-67.584C7.04 684.288 0.512 651.52 0 613.824h97.6z"
    fill="#ef2d8c" p-id="40091" data-spm-anchor-id="a313x.search_index.0.i32.3c873a810dy9u2" class="selected"></path>
</svg>
