<?xml version="1.0" encoding="utf-8"?>
<!-- Generator: Adobe Illustrator 27.0.0, SVG Export Plug-In . SVG Version: 6.00 Build 0)  -->
<svg version="1.1" id="图层_1" xmlns="http://www.w3.org/2000/svg" xmlns:xlink="http://www.w3.org/1999/xlink" x="0px" y="0px"
	 viewBox="0 0 32 32" style="enable-background:new 0 0 32 32;" xml:space="preserve">


<g>
	  <path  d="M8.77,9.7L3.26,20.37v0.07c0.52-0.19,1.04-0.3,2.04-0.3h3.47v3.19H0.1v-3.19L5.46,9.57V9.5
		C4.94,9.63,4.42,9.7,3.42,9.7H0.1V6.51h8.68V9.7z" fill='#a79710'/>
        <path  d="M11.7,17.76c0.21,1.9,0.86,2.93,2.22,2.93c0.77,0,1.34-0.52,1.34-1.59c0-1.21-0.55-1.68-2.56-2.61
		c-2.32-1.08-3.51-2.57-3.51-5.13c0-3.17,1.7-5.07,4.27-5.07c2.61,0,4.21,1.72,4.57,4.94l-2.9,0.8c-0.11-2.03-0.72-3.08-1.79-3.08
		c-0.83,0-1.29,0.69-1.29,1.72c0,1.14,0.6,1.75,2.43,2.52c2.71,1.14,3.85,2.48,3.85,5.24c0,3.13-1.71,5.13-4.58,5.13
		c-3,0-4.7-1.79-5.04-5.3L11.7,17.76z" fill='#a79710'/>
        <path  d="M26.4,18.26h-5.51c0.16,2.05,0.78,2.8,1.62,2.8c0.62,0,1.03-0.56,1.22-1.6l2.43,0.97
		c-0.78,2.48-2.1,3.1-3.69,3.1c-2.81,0-4.39-2.2-4.39-6.17c0-4.4,1.78-6.55,4.16-6.55c2.97,0,4.16,2.5,4.16,5.56V18.26z M23.82,15.8
		c-0.02-1.68-0.64-2.52-1.44-2.52c-0.69,0-1.31,0.56-1.48,2.52H23.82z" fill='#a79710'/>
        <path  d="M29.86,19.18c0,1.19,0.42,1.6,1.35,1.6c0.29,0,0.6-0.09,0.78-0.17v2.59c-0.49,0.21-1.21,0.34-1.83,0.34
		c-1.76,0-3-1.21-3-3.77v-6.14h-1.34v-2.59h1.34V9.4l2.69-2.05v3.69h2.01v2.59h-2.01V19.18z" fill='#a79710'/>
</g>
</svg>
