<?xml version="1.0" standalone="no"?><!DOCTYPE svg PUBLIC "-//W3C//DTD SVG 1.1//EN" "http://www.w3.org/Graphics/SVG/1.1/DTD/svg11.dtd"><svg t="1708770818947" class="icon" viewBox="0 0 1024 1024" version="1.1" xmlns="http://www.w3.org/2000/svg" p-id="24979" xmlns:xlink="http://www.w3.org/1999/xlink" width="32" height="32"><path d="M484.693333 590.506667c6.826667 0 10.24-3.413333 13.653334-6.826667 10.24-13.653333 184.32-296.96 184.32-395.946667 0-102.4-85.333333-187.733333-187.733334-187.733333S307.2 85.333333 307.2 187.733333c0 98.986667 157.013333 378.88 163.84 392.533334 3.413333 3.413333 10.24 6.826667 13.653333 10.24zM494.933333 136.533333c27.306667 0 51.2 23.893333 51.2 51.2S522.24 238.933333 494.933333 238.933333 443.733333 215.04 443.733333 187.733333 467.626667 136.533333 494.933333 136.533333z" fill="#d4237a" p-id="24980"></path><path d="M484.693333 624.64c-17.066667 0-34.133333-10.24-44.373333-27.306667-17.066667-30.72-61.44-112.64-98.986667-197.973333v529.066667l307.2 92.16V385.706667c-44.373333 88.746667-98.986667 177.493333-119.466666 211.626666-6.826667 17.066667-23.893333 27.306667-44.373334 27.306667zM0 392.533333v614.4c0 6.826667 3.413333 10.24 6.826667 13.653334 3.413333 3.413333 6.826667 3.413333 10.24 3.413333h6.826666L307.2 928.426667V310.613333L13.653333 375.466667c-6.826667 3.413333-13.653333 10.24-13.653333 17.066666zM1017.173333 310.613333c-3.413333-3.413333-6.826667-3.413333-13.653333-3.413333L682.666667 372.053333v648.533334l327.68-98.986667c6.826667-3.413333 13.653333-10.24 13.653333-17.066667v-580.266666c0-6.826667-3.413333-10.24-6.826667-13.653334z" fill="#d4237a" p-id="24981"></path></svg>