<?xml version="1.0" standalone="no"?><!DOCTYPE svg PUBLIC "-//W3C//DTD SVG 1.1//EN" "http://www.w3.org/Graphics/SVG/1.1/DTD/svg11.dtd"><svg t="1647849460744" class="icon" viewBox="0 0 1024 1024" version="1.1" xmlns="http://www.w3.org/2000/svg" p-id="8375" xmlns:xlink="http://www.w3.org/1999/xlink" width="16" height="16"><defs><style type="text/css"></style></defs><path d="M548.571429 512q14.857143 0 25.714285 10.857143t10.857143 25.714286-10.857143 25.714285-25.714285 10.857143-25.714286-10.857143-10.857143-25.714285 10.857143-25.714286 25.714286-10.857143z m171.428571 36.571429l289.714286 227.428571q16 11.428571 14.285714 32-2.857143 20-20 29.142857l-73.142857 36.571429q-7.428571 4-16.571429 4-9.714286 0-17.714285-4.571429l-394.285715-221.142857-62.857143 37.714286q-4.571429 2.285714-6.857142 2.857143 8 28 5.714285 55.428571-4 44-32 84.285714T330.857143 902.857143q-75.428571 48-158.285714 48-77.714286 0-126.857143-44.571429-51.428571-48-45.142857-118.285714 4-43.428571 32-84t74.857142-70.857143q75.428571-48 158.857143-48 47.428571 0 86.285715 17.714286 5.142857-7.428571 12.571428-12.571429l69.714286-41.714285-69.714286-41.714286q-7.428571-5.142857-12.571428-12.571429-38.857143 17.714286-86.285715 17.714286-83.428571 0-158.857143-48-46.857143-30.285714-74.857142-70.857143T0.571429 309.142857q-2.857143-33.714286 8.857142-64.571428T45.714286 191.428571q48.571429-45.142857 126.857143-45.142857 82.857143 0 158.285714 48 47.428571 29.714286 75.428571 70.285715t32 84.571428q2.285714 27.428571-5.714285 55.428572 2.285714 0.571429 6.857142 2.857142l62.857143 37.714286 394.285715-221.142857q8-4.571429 17.714285-4.571429 9.142857 0 16.571429 4l73.142857 36.571429q17.142857 9.142857 20 29.142857 1.714286 20.571429-14.285714 32zM330.857143 400q26.285714-24 12-61.714286T282.285714 271.428571q-52.571429-33.714286-109.714285-33.714285-42.285714 0-64.571429 20.571428-26.285714 24-12 61.714286t60.571429 66.857143q52.571429 33.714286 109.714285 33.714286 42.285714 0 64.571429-20.571429z m-48.571429 425.714286q46.285714-29.142857 60.571429-66.857143t-12-61.714286q-22.285714-20.571429-64.571429-20.571428-57.142857 0-109.714285 33.714285-46.285714 29.142857-60.571429 66.857143t12 61.714286q22.285714 20.571429 64.571429 20.571428 57.142857 0 109.714285-33.714285z m101.714286-350.285715l54.857143 33.142858v-6.285715q0-20.571429 18.857143-32l8-4.571428-45.142857-26.857143-14.857143 14.857143q-1.714286 1.714286-5.714286 6.285714t-6.857143 6.857143q-1.142857 1.142857-2.285714 2t-1.714286 1.428571z m128 128l54.857143 18.285715 420.571428-329.142857-73.142857-36.571429-438.857143 246.285714v64.571429l-91.428571 54.857143 5.142857 4.571428q1.142857 1.142857 4 3.428572 2.285714 2.285714 6.285714 6.857143t6.285715 6.857142l14.857143 14.857143z m402.285714 237.714286l73.142857-36.571428-297.142857-233.142858-101.142857 78.857143q-1.142857 1.714286-7.428571 4z" p-id="8376"></path></svg>