<?xml version="1.0" standalone="no"?><!DOCTYPE svg PUBLIC "-//W3C//DTD SVG 1.1//EN" "http://www.w3.org/Graphics/SVG/1.1/DTD/svg11.dtd"><svg t="1647135868445" class="icon" viewBox="0 0 1058 1024" version="1.1" xmlns="http://www.w3.org/2000/svg" p-id="9267" xmlns:xlink="http://www.w3.org/1999/xlink" width="33.0625" height="32"><defs><style type="text/css"></style></defs><path d="M502.026258 613.207973a108.689214 108.689214 0 1 1-0.302335-217.340635 108.689214 108.689214 0 0 1 0.302335 217.302844z m211.482907-58.463913a50.376468 50.376468 0 1 1 0-100.790727 50.376468 50.376468 0 0 1 0 100.790727z m183.4036 47.201957a48.033377 48.033377 0 1 1 1.020379-4.043722c0 1.171546 0 2.532051-1.020379 4.043722z m-35.410915-129.852621a50.376468 50.376468 0 1 1 37.262714-60.277919c1.247129 6.500189 1.247129 13.151546 0 19.651735-2.645426 20.029653-17.573187 36.280127-37.262714 40.626184z m178.377291 124.335019a50.376468 50.376468 0 1 1-40.663976-58.123787 50.376468 50.376468 0 0 1 42.175648 53.550979 12.924795 12.924795 0 0 0-1.020379 4.535016h-0.491293z m-40.815143-125.846691a50.376468 50.376468 0 1 1 41.117477-57.594702c0.529085 4.308265 0.529085 8.654322 0 12.924796a50.376468 50.376468 0 0 1-41.646562 44.669906h0.529085z m-34.957414 299.500007a50.376468 50.376468 0 1 1 6.235647-20.672114c-0.377918 7.293817-2.532051 14.360884-6.235647 20.672114z m-18.140064-460.719821a50.376468 50.376468 0 1 1 19.160443-68.554324c5.290852 8.956656 7.482776 19.424985 6.197855 29.742146a50.452052 50.452052 0 0 1-25.320506 39.49243v-0.680252zM503.878056 1009.606153C225.61704 1009.606153 0 783.989113 0 505.690305 0 227.429289 225.61704 1.812249 503.878056 1.812249c110.692179-0.377918 218.361015 36.091168 306.037988 103.625113L748.27762 186.614147a403.12512 403.12512 0 0 0-647.486892 319.11395 403.12512 403.12512 0 0 0 647.638059 320.134329l61.487257 80.496532a499.531999 499.531999 0 0 1-306.037988 103.284987z" fill="#9E2159" p-id="9268"></path></svg>