<?xml version="1.0" standalone="no"?><!DOCTYPE svg PUBLIC "-//W3C//DTD SVG 1.1//EN" "http://www.w3.org/Graphics/SVG/1.1/DTD/svg11.dtd"><svg t="1713153634758" class="icon" viewBox="0 0 1024 1024" version="1.1" xmlns="http://www.w3.org/2000/svg" p-id="29645" xmlns:xlink="http://www.w3.org/1999/xlink" width="32" height="32"><path d="M511.978761 0A511.992508 511.992508 0 1 1 0 511.978761 512.006255 512.006255 0 0 1 511.978761 0z m211.45604 339.632878c-26.545418-0.769831-38.299085 8.825561-37.584242 36.099568 0.714843 40.512349 0 81.739541 0 123.722817h-355.771832a615.232325 615.232325 0 0 1 2.213264-65.559346c-1.374698-103.102347 16.936279-96.476303-96.476303-91.334933-47.908224 2.213264-72.955221 29.473524-73.670064 77.368002q-1.099758 89.492837 0 178.985674c0 47.138393 16.180195 70.700716 61.861408 74.398653 106.071695 7.395875 213.586822 14.021919 320.428348 14.736763a2325.70026 2325.70026 0 0 0 247.528114-14.736763c44.925129-3.697938 60.48671-25.775587 61.146565-70.700716 0.714843-44.210286-2.213264-88.406826 1.374698-131.847281 10.365223-137.758482-40.457361-128.204332-131.07745-131.132438z" fill="#E2000E" p-id="29646"></path></svg>