<?xml version="1.0" standalone="no"?><!DOCTYPE svg PUBLIC "-//W3C//DTD SVG 1.1//EN" "http://www.w3.org/Graphics/SVG/1.1/DTD/svg11.dtd"><svg t="1647141419587" class="icon" viewBox="0 0 1024 1024" version="1.1" xmlns="http://www.w3.org/2000/svg" p-id="33021" xmlns:xlink="http://www.w3.org/1999/xlink" width="32" height="32"><defs><style type="text/css"></style></defs><path d="M511.999744 67.004212C266.239867 67.021278 67.020766 266.291579 67.071966 512.068523A444.996044 444.996044 0 0 0 185.275641 814.080105c5.905064-18.039458 15.615992-32.819184 37.205314-37.358915 26.675187-5.631997 55.688505 26.726387 48.622909 50.431975-4.693331 15.701325-20.053323 27.153053-34.764782 34.235716 193.058037 152.234591 473.00243 119.159407 625.254087-73.898629a444.978978 444.978978 0 0 0 73.250097-136.362599c-7.61173 13.653327-16.230392 26.316787-25.838921 38.126914-136.140732 166.12685-350.549158 116.872475-551.355457 121.992473 314.709176-106.444747 482.849892-248.336942 504.353881-425.642454C802.030532 490.3256 718.335641 575.146891 610.935161 640.170859a805.802264 805.802264 0 0 1-345.514494 114.824476c-95.778085-94.003153-109.533812-190.907638-41.267179-290.713455 102.451149-149.691658 324.078771-101.222349 477.337361-157.986054 57.873038-21.469856 105.181814-51.882641 141.892196-91.289555a443.716045 443.716045 0 0 0-331.332101-147.984993H511.999744zM511.999744 0.000512a510.549078 510.549078 0 0 1 372.104347 160.272987 341.759829 341.759829 0 0 0 24.866121-51.677841 1728.238069 1728.238069 0 0 1 38.468248 133.939133A509.337345 509.337345 0 0 1 1023.999488 512.000256c0 282.777459-229.188152 511.999744-511.999744 511.999744C229.273485 1024 0 794.777715 0 512.000256 0 229.222797 229.273485 0.000512 511.999744 0.000512z" fill="#37D1A2" p-id="33022"></path></svg>