<?xml version="1.0" standalone="no"?><!DOCTYPE svg PUBLIC "-//W3C//DTD SVG 1.1//EN" "http://www.w3.org/Graphics/SVG/1.1/DTD/svg11.dtd"><svg t="1713153041949" class="icon" viewBox="0 0 1024 1024" version="1.1" xmlns="http://www.w3.org/2000/svg" p-id="11720" xmlns:xlink="http://www.w3.org/1999/xlink" width="32" height="32"><path d="M939.2 404.373c-1.493-26.56-10.453-52.48-26.453-77.12s-39.467-48-69.654-69.653c-4.8-10.347-13.44-28.587-23.253-46.933-24.747-46.507-43.307-71.68-70.507-71.68-23.04 0-43.946 17.066-65.92 53.653-16.213 27.093-30.613 61.333-40.533 96.32-2.56 9.067-16.853 19.413-35.2 30.4 8.96-22.827 12.693-44.907 8.64-65.92-24.64-128.32-95.04-185.6-228.16-185.6-71.253 0-130.667 18.667-167.893 34.24-45.334 18.987-81.28 43.2-96 64.747-13.227 19.2-9.814 35.84-6.72 43.946 5.013 12.8 15.573 22.294 31.36 28.374 8 3.093 16.96 5.12 25.493 7.146s20.16 4.694 23.893 7.147c8.32 6.827 11.414 10.453 12.907 18.667 2.027 11.2 1.493 34.453-13.227 81.6-9.493 30.4-20.48 53.013-31.146 74.986-24.427 50.347-47.467 97.92-33.92 204.48a34.133 34.133 0 1 0 67.626-8.533c-10.986-86.507 5.227-119.893 27.734-166.08 11.093-23.147 23.786-49.28 34.88-84.587 32.32-103.573 15.466-143.253-22.08-173.76-9.707-7.786-21.334-12.48-33.067-15.786a314.453 314.453 0 0 1 38.613-19.414c31.574-13.12 81.6-28.906 141.547-28.906 100.48 0 142.613 34.026 161.067 130.24 1.493 7.253 0.32 25.173-23.467 63.04-19.2 30.506-46.08 63.466-72.213 95.253-8 9.6-15.467 18.773-22.72 27.84l-1.6 2.027c-21.974 26.24-42.987 57.813-61.44 96-1.28 2.56-2.027 4.16-2.134 4.48a34.133 34.133 0 0 0 61.867 28.8l1.28-2.667c4.48-9.28 23.467-46.293 55.253-85.867l2.134-2.666c43.306-49.92 90.986-77.12 132.053-100.48s79.147-45.014 90.347-84.587 26.88-70.293 38.186-87.36c10.88 17.92 25.6 46.4 37.867 73.92a33.067 33.067 0 0 0 12.053 14.4c46.72 31.787 72.427 66.24 74.347 99.733s-18.133 57.707-25.813 64.64c-4.16 2.134-14.827 2.987-31.787 2.454l-9.067-0.214c-21.76 0.64-32.64 15.254-35.306 27.627s0.853 28.8 18.773 38.613l1.067 0.534c3.413 7.68 9.173 22.613 17.386 44.586 4.694 12.694 5.654 20.694 5.44 24.64-3.093 0.32-9.066 0.107-18.133-2.133-26.24-6.507-47.467-11.733-62.4-14.293-12.373-2.24-41.387-7.254-56.533 15.786-9.387 14.507-8.214 31.36 3.733 50.24 4.907 7.68 11.947 16.747 20.8 28.267l1.813 2.347c13.334 17.386 15.36 51.946 6.187 102.933-1.6 9.28-3.2 16.853-4.373 22.827-3.307 16.106-5.44 26.666-2.987 38.826a50.773 50.773 0 0 0 4.267 12.694c-4.374-0.214-8.854-0.427-13.12-0.854a34.133 34.133 0 0 0-6.187 68.054c0.64 0 14.613 1.28 30.933 1.28h5.76c26.56-0.427 55.36-4.16 68.16-27.307 8.214-15.04 6.187-32.853-5.333-47.787-5.44-6.933-9.707-12.16-13.227-16.32l-3.413-4.266a558.09 558.09 0 0 1 2.027-10.667c1.28-6.293 2.88-14.187 4.693-24.32 6.933-38.293 12.907-90.773-5.547-133.12l8.107 2.027a130.027 130.027 0 0 0 31.68 4.16c29.76 0 46.507-12.8 54.72-21.974 13.653-15.146 25.813-43.946 6.933-94.72l-8.746-23.36a70.613 70.613 0 0 0 27.733-14.4c20.16-17.386 53.227-62.186 49.92-120.64z" fill="#ABE2FF" p-id="11721"></path><path d="M753.813 381.653a34.133 34.133 0 1 0 68.267 0 34.133 34.133 0 1 0-68.267 0zM173.867 699.413H105.92A20.587 20.587 0 0 0 85.333 720v193.707a20.587 20.587 0 0 0 20.587 20.586 20.587 20.587 0 0 0 20.48-20.586v-69.12h37.867a20.48 20.48 0 0 0 20.48-20.48v-5.974a20.587 20.587 0 0 0-20.48-20.586H126.4v-51.414h47.467a20.48 20.48 0 0 0 20.586-20.48V720a20.587 20.587 0 0 0-20.586-20.587z m100.16 198.4a5.12 5.12 0 0 0-5.12-4.586h-0.107c-3.2 0-7.253-3.52-7.253-15.147V700.587a18.453 18.453 0 0 0-18.56-18.454h-3.627a18.453 18.453 0 0 0-18.56 18.454V875.84c0 37.547 9.28 62.827 37.227 62.827h0.32a18.453 18.453 0 0 0 18.026-20.587zM317.44 754.667h-0.107q20.374 0 20.374 20.373v138.827q0 20.373-20.374 20.373h0.107q-20.373 0-20.373-20.373V775.04q0-20.373 20.373-20.373zM317.547 672c-13.76 0-23.467 11.947-23.467 29.013s9.707 28.694 23.467 28.694 23.146-11.947 23.146-28.694S331.093 672 317.547 672zM449.6 750.293c-17.707 0-31.04 12.267-41.813 26.774h-0.854l-0.853-6.934a17.707 17.707 0 0 0-35.307 2.24v144.214a17.813 17.813 0 0 0 17.707 17.706h5.333a17.813 17.813 0 0 0 17.707-17.706V814.293c8-10.346 13.547-16.106 22.72-16.106s15.147 7.253 15.147 31.893v86.507a17.707 17.707 0 0 0 17.706 17.706h5.44a17.707 17.707 0 0 0 17.707-17.706v-93.44c0-44.8-12.16-72.854-40.64-72.854zM600.533 828.8l28.374-45.653a18.667 18.667 0 0 0-15.894-28.48 18.667 18.667 0 0 0-16.106 9.28l-34.347 58.88h-0.853V700.8a18.667 18.667 0 0 0-18.667-18.667h-2.453A18.667 18.667 0 0 0 521.92 700.8v214.827a18.773 18.773 0 0 0 18.667 18.666h2.453a18.773 18.773 0 0 0 18.667-18.666v-25.28l15.573-24.214 23.467 56.64a18.773 18.773 0 0 0 17.28 11.52h2.453a18.667 18.667 0 0 0 16.96-26.56z" fill="#ABE2FF" p-id="11722"></path></svg>