<?xml version="1.0" standalone="no"?><!DOCTYPE svg PUBLIC "-//W3C//DTD SVG 1.1//EN" "http://www.w3.org/Graphics/SVG/1.1/DTD/svg11.dtd"><svg t="1713153332995" class="icon" viewBox="0 0 1024 1024" version="1.1" xmlns="http://www.w3.org/2000/svg" p-id="23327" xmlns:xlink="http://www.w3.org/1999/xlink" width="32" height="32"><path d="M1020.992259 510.245455c0.245268 279.66675-218.697232 512.42601-511.731084 511.710646C220.928291 1021.240736-2.285958 790.504936 0.984281 500.4143 4.091008 231.743728 230.963837-5.818695 522.996179 0.108613 790.828751 5.545385 1023.322304 228.923147 1020.992259 510.245455zM85.846982 507.343118c-1.471608 236.131694 186.730646 428.646575 424.599654 428.319551C750.114276 935.315207 934.535316 746.5611 935.86385 513.025159c1.369413-241.180125-188.222693-426.868383-421.22722-428.585258C275.929623 82.62083 87.359468 272.580837 85.846982 507.343118z" fill="#81BE41" p-id="23328"></path><path d="M148.104157 509.795798c1.042389-89.931572 29.084688-169.643647 88.970939-238.032521 62.502443-71.29121 141.029056-111.739978 234.435258-122.633961 103.58482-11.997689 194.824488 18.395094 275.027098 84.208653A296.671993 296.671993 0 0 1 783.000617 269.801134c35.13463 40.877987 33.90829 88.705232-3.2498 128.172929-35.563849 37.750821-74.990668 71.229893-114.969339 103.911844-62.584199 51.097484-112.741489 112.905001-157.870787 179.209096-27.899226 40.980182-53.529724 83.513728-90.135962 117.973872-32.334488 30.454101-63.503953 35.7478-102.705944 14.470807-50.239046-27.265618-86.436504-69.185994-115.296363-117.013238a345.418993 345.418993 0 0 1-50.668265-186.730646z m378.284895-172.689058c-85.067092 0-149.613434 41.307206-175.203054 104.095795-29.575224 72.660622-9.381498 147.814802 38.486625 192.290052 19.825824 18.395094 35.461654 18.701679 52.81436-2.697947a505.476752 505.476752 0 0 0 33.397315-47.398026c31.210343-49.053585 68.981604-91.709765 115.480314-126.721761a268.977157 268.977157 0 0 0 35.931751-32.70239c15.308806-16.678219 13.469297-31.230782-3.597263-45.885541-31.864391-27.326935-69.104238-40.142184-97.310048-40.980182z" fill="#81BE41" p-id="23329"></path></svg>