<?xml version="1.0" standalone="no"?><!DOCTYPE svg PUBLIC "-//W3C//DTD SVG 1.1//EN" "http://www.w3.org/Graphics/SVG/1.1/DTD/svg11.dtd"><svg t="1713152996987" class="icon" viewBox="0 0 1024 1024" version="1.1" xmlns="http://www.w3.org/2000/svg" p-id="10644" xmlns:xlink="http://www.w3.org/1999/xlink" width="32" height="32"><path d="M11.6224 0h1000.7552c6.4 0 11.6224 5.2224 11.6224 11.6224v1000.7552a11.6224 11.6224 0 0 1-11.6224 11.6224H11.6224A11.6224 11.6224 0 0 1 0 1012.3776V11.6224C0 5.2224 5.2224 0 11.6224 0z" fill="#FFFFFF" p-id="10645"></path><path d="M417.9456 39.6288v1.536a2.7648 2.7648 0 0 0 0-1.536s0 0.6144 0 0zM344.1664 381.5936c41.6256 43.6736 76.9024 91.648 87.1936 154.4192 2.048 14.6944 2.048 27.0848 4.096 39.68a44.288 44.288 0 0 0 45.824-45.568 142.1312 142.1312 0 0 0-8.3456-52.6336c-16.64-50.0736-47.9232-91.904-83.2-129.3824a43.8784 43.8784 0 0 1-10.3936-16.6912c-12.4928-60.5696-14.592-121.1392 0.0512-179.5584 10.0864-38.4 24.2176-74.9056 36.2496-113.2032C339.6096 132.2496 312.9856 238.1824 331.4688 358.4c2.0992 8.704 6.5024 16.6912 12.6976 23.1424zM420.608 36.5056c0.768-0.7168 0.768-1.5872-2.048-1.5872-1.0752 1.7408-1.8944 3.5328-2.6624 5.12 0.768-0.512 1.8944-1.1776 2.6624-1.792 0.8192 0.1024 1.5872-0.1024 2.048-0.512 0.4096-0.3584 0.4096-0.8704 0-1.2288z m-91.136 432.6912c0 45.8752 37.4784 100.2496 70.8096 110.6432-20.8384-39.68-35.5328-79.2576-70.7584-110.592z m131.072 206.592c-10.3424-20.8384-35.328-22.8352-51.968-6.144l1.1264 1.024-1.1264 1.1776c4.7616 2.3552 9.6768 4.4032 14.6432 6.1952 1.536 14.4896 8.192 25.2416 20.5824 28.4672 4.096 1.536 8.3968 2.5088 12.8 2.9184l3.2768 6.656c6.0928 16.2304 12.1856 31.488 19.3536 46.592l4.4544 11.1616v-2.5088 0.4096c-2.3552-33.4336-6.5024-66.816-23.0912-96.0512v0.1024z m257.8944-246.2208l-3.584 5.5808c0-1.1264-0.4096-2.3552-0.7168-3.4816-10.3424 14.5408-20.736 31.232-31.232 45.8752-18.5344 25.088-37.4272 48.0256-56.064 71.0144a31.232 31.232 0 0 1-7.2192 7.3216 21.1968 21.1968 0 0 1-17.7152-3.1232c0-6.2464-2.1504-16.7424 0-25.088a331.776 331.776 0 0 1 14.6432-47.9744c18.688-39.5264 47.8208-73.0112 79.104-102.2464 4.096-4.096 10.3424-12.5952 10.3424-18.8416a405.0432 405.0432 0 0 0-16.64-210.7904c-10.9056-22.3744-23.04-44.0832-36.352-65.0752-10.2912-16.0256-21.76-31.232-34.304-45.5168 0 6.2464 0 6.2464-4.1984 8.3968 43.7248 81.408 54.1696 171.1616 41.6256 263.0656-1.9968 18.7904-10.0352 36.352-22.9376 50.1248-24.8832 31.3344-49.92 62.5152-68.608 96-26.9312 47.8208-29.0816 97.9456 4.1984 146.0736 20.736 31.3344 20.736 60.5696 0 91.9552a170.2912 170.2912 0 0 0-26.9824 106.4448c2.0992 27.0336 6.2464 52.1728 8.3456 77.1584l-22.2208 27.8528c-11.776-11.776-21.8112-19.968-31.744-29.952a21.4528 21.4528 0 0 0-0.8704 5.5808l-3.328-3.2256c-4.096 16.6912 4.1472 22.9376 14.6432 29.184 14.6432 8.448 22.8864 22.9888 14.6432 33.3824a16.64 16.64 0 0 1-5.5296 4.8128c-4.1472 1.8432-8.8576 3.4816-13.1584 5.632h0.3072c-1.536 0.5632-2.9696 1.1264-4.4544 1.8944 8.2944 4.1984 16.64 6.2464 26.9824 10.4448 1.8432 8.8576 2.56 17.92 2.1504 27.0336 4.7616-1.536 9.4208-3.584 13.824-5.9392 19.5584-9.3696 34.7136-25.9072 42.3424-46.2336 24.9344-66.816 35.328-137.7792 39.4752-210.7904 0.4096-7.168 1.792-14.1824 4.1472-20.8896 4.7616-10.8544 10.3424-21.3504 16.6912-31.3344 5.7344-2.3552 11.264-5.12 16.64-8.3456l-4.1984-4.1984c-22.8864-14.5408-26.9312-33.3824-10.3424-56.32 8.2944-10.3936 16.64-22.9376 29.1328-29.184 35.1232-23.1936 53.76-92.1088 43.264-146.2272l-0.1024-0.0512z" fill="#33A9DD" p-id="10646"></path></svg>