<?xml version="1.0" standalone="no"?><!DOCTYPE svg PUBLIC "-//W3C//DTD SVG 1.1//EN" "http://www.w3.org/Graphics/SVG/1.1/DTD/svg11.dtd"><svg t="1647135982867" class="icon" viewBox="0 0 1024 1024" version="1.1" xmlns="http://www.w3.org/2000/svg" p-id="10242" xmlns:xlink="http://www.w3.org/1999/xlink" width="32" height="32"><defs><style type="text/css"></style></defs><path d="M733.024 406.112c-53.888-237.216-180.992-315.168-194.656-344.992-15.008-21.024-31.264-61.088-31.264-61.088l-0.224 2.08v0.544h-0.032a15.36 15.36 0 0 0-0.16 1.664v0.64h-0.096c0 0.416-0.096 0.768-0.096 1.12v1.12h-0.128c-0.032 0.352-0.032 0.768-0.128 1.056v0.896h-0.096c0 0.288 0 0.64-0.096 0.896v0.864h-0.096a10.304 10.304 0 0 1-0.096 1.376v0.096l-0.384 2.144v0.352h-0.096c-0.032 0.16-0.128 0.352-0.128 0.512v0.736h-0.128v0.928h-0.224v0.768h-0.224v0.896h-0.16V19.52h-0.16v0.736h-0.256v0.608h-0.16v0.768h-0.16v0.608h-0.224v0.544h-0.128v0.64h-0.16l-0.032 0.16V24h-0.128l-0.032 0.256v0.256h-0.096l-0.096 0.416-0.416 0.896V25.92l-0.224 0.288V26.56h-0.16v0.352h-0.224v0.352h-0.128v0.416h-0.256v0.608h-0.16v0.16h-0.16V28.8h-0.16v0.48h-0.16v0.352h-0.256v0.48h-0.16v0.352h-0.224v0.352h-0.128v0.416h-0.224v0.352h-0.16v0.256h-0.16v0.352h-0.256v0.384h-0.16v0.256h-0.224v0.352h-0.16v0.48h-0.224v0.16h-0.128v0.352h-0.256v0.16h-0.16v0.416h-0.16v0.16h-0.16v0.352h-0.224v0.256h-0.128l-0.096 0.16v0.16h-0.096c-0.032 0.096-0.096 0.096-0.096 0.16v0.032h-0.032a0.64 0.64 0 0 1-0.16 0.288v0.128h-0.032c-0.224 0.256-0.352 0.512-0.512 0.768v0.032c-0.096 0.096-0.288 0.256-0.384 0.416v0.096h-0.032l-0.128 0.128v0.128h-0.096l-0.128 0.128v0.032h-0.032l-0.128 0.16v0.16h-0.128l-0.096 0.096v0.096h-0.096c0 0.096-0.096 0.096-0.096 0.128v0.128h-0.16l-0.096 0.128v0.256h-0.128v0.16h-0.16v0.256h-0.16v0.352h-0.224v-0.352h-0.224v0.16h-0.16v0.256h-0.224v0.352h-0.224v0.16h-0.16v0.256h-0.16v0.16h-0.16v0.352h-0.256V41.6h-0.16v0.256h-0.224v0.16h-0.16v0.224h-0.224v0.416h-0.096v0.16h-0.256v0.224h-0.16v0.096h-0.16v0.16h-0.224v0.416h-0.16v0.16h-0.224v0.16h-0.16v0.256h-0.224v0.16h-0.224v0.16H489.6v0.16h-0.16v0.416h-0.16v0.224h-0.256v0.16h-0.16v0.16h-0.224v0.256h-0.16v0.16h-0.224v0.288h-0.16v0.16h-0.256v0.256h-0.096v0.16h-0.16v0.16h-0.224v0.16h-0.16v0.256h-0.224v0.16h-0.128l-0.032 0.096v0.096h-0.096l-0.16 0.16-0.16 0.128v0.256h-0.16v0.224h-0.16v0.16h-0.16v0.16h-0.128l-0.128 0.128v0.128h-0.096l-0.096 0.096v0.128h-0.096c-0.224 0.256-0.288 0.416-0.608 0.672l-0.512 0.416a15.776 15.776 0 0 0-1.664 1.376c-0.352 0.224-0.672 0.512-0.928 0.736v0.032h-0.032a236.384 236.384 0 0 1-2.08 1.664v0.032l-3.168 2.656v-0.032h-0.096c-2.432 2.016-4.992 4.256-7.936 6.784v0.032h-0.032c-7.2 6.304-15.776 14.432-25.376 24.224l-0.8 0.8c-58.016 60.032-149.472 185.12-159.104 387.296-0.864 16.736-0.672 32.992 0.256 48.8v0.384c4.64 79.648 29.664 147.68 60.928 202.912v0.032a529.92 529.92 0 0 0 39.52 59.936v0.032c47.008 62.08 95.008 98.848 107.264 107.776 18.816 43.648 17.056 118.56 17.056 118.56l27.488 9.184s-5.6-72.576 2.272-107.616a66.56 66.56 0 0 1 14.88-28.256c4.512-3.2 17.92-12.832 34.016-27.52 0.768-0.8 1.184-1.536 1.888-2.304 64.896-60.512 186.112-209.504 144.544-452.224z" fill="#47A248" p-id="10243"></path></svg>