<?xml version="1.0" standalone="no"?><!DOCTYPE svg PUBLIC "-//W3C//DTD SVG 1.1//EN" "http://www.w3.org/Graphics/SVG/1.1/DTD/svg11.dtd"><svg t="1696835719150" class="icon" viewBox="0 0 1024 1024" version="1.1" xmlns="http://www.w3.org/2000/svg" p-id="4035" width="32" height="32" xmlns:xlink="http://www.w3.org/1999/xlink"><path d="M184.795429 555.958857H182.857143v251.757714c0 18.176 14.921143 33.097143 33.097143 33.097143h259.218285c-2.230857-157.330286-131.401143-284.854857-290.377142-284.854857z m0-207.652571H182.857143v107.081143c213.796571 0.950857 387.657143 172.946286 389.997714 385.426285h110.957714c-2.011429-271.872-224.914286-492.434286-499.090285-492.434285l0.073143-0.073143zM841.142857 808.009143v-227.364572A709.083429 709.083429 0 0 0 425.874286 182.857143h-209.92A33.243429 33.243429 0 0 0 182.857143 215.954286v32.109714C511.853714 249.051429 779.483429 514.121143 781.421714 841.142857h26.624a33.243429 33.243429 0 0 0 33.097143-33.097143zM754.541714 274.724571c30.464 30.464 61.586286 69.12 86.601143 103.131429V215.661714A32.694857 32.694857 0 0 0 808.374857 182.857143h-167.058286c38.912 26.953143 79.140571 57.746286 113.225143 91.830857z" fill="#9828AC" p-id="4036"></path></svg>