<?xml version="1.0" standalone="no"?><!DOCTYPE svg PUBLIC "-//W3C//DTD SVG 1.1//EN" "http://www.w3.org/Graphics/SVG/1.1/DTD/svg11.dtd"><svg t="1708956711603" class="icon" viewBox="0 0 1024 1024" version="1.1" xmlns="http://www.w3.org/2000/svg" p-id="5307" xmlns:xlink="http://www.w3.org/1999/xlink" width="32" height="32"><path d="M554.19555022 818.36255107a919.0523023 919.0523023 0 0 1 56.26465981-21.35111315 539.1980886 539.1980886 0 0 1 26.59462694-8.64885092l21.48072716-6.10368513C766.98790704 752.25893919 876.9367141 744.12854842 983.32700047 755.81745712v-110.33765046c-117.64321943-11.7006928-238.8567409-1.53181229-359.05690884 32.02666971l-21.48072854 6.10368513c-9.21444333 3.06362596-18.92377862 6.10368513-28.13822195 9.155527-18.40531985 6.10368513-36.8224224 13.22072237-54.72106481 20.33775962l34.26547389 104.75242549V818.36255107z" fill="#07C846" p-id="5308"></path><path d="M982.82032441 288.00184235v330.02316606a988.89118111 988.89118111 0 0 0-371.85343693 35.07851297c-15.34169388 4.57187145-30.16492759 9.155527-45.51840557 14.23407449-18.41710256 6.10368513-36.8224224 12.20736886-54.73284753 17.29770186-156.50413021 45.75406815-315.07031694 62.02663378-469.53595879 50.84439977V405.46831415c120.71862813 11.7006928 245.00755826 1.02513622 367.24621596-33.558482 16.87350618-4.57187145 33.24033628-10.1688805 50.12562654-15.76588818 16.87350618-5.58522495 33.75879644-11.18223263 50.12562654-16.26078154 158.04772659-46.77920438 318.14572563-63.06355271 474.14317978-52.37621344v0.50667744z" fill="#0181FD" p-id="5309"></path><path d="M469.80444978 205.63744893a919.0523023 919.0523023 0 0 1-56.26465981 21.35111315 539.1980886 539.1980886 0 0 1-26.59462694 8.64885092l-21.48072716 6.10368513C257.01209296 271.74106081 147.0632859 279.87145158 40.67299953 268.18254288v110.33765046c117.64321943 11.7006928 238.8567409 1.53181229 359.05690884-32.02666971l21.48072854-6.10368513c9.21444333-3.06362596 18.92377862-6.10368513 28.13822195-9.155527 18.40531985-6.10368513 36.8224224-13.22072237 54.72106481-20.33775962l-34.26547389-104.75242549V205.63744893z" fill="#FFA005" p-id="5310"></path></svg>