<?xml version="1.0" standalone="no"?><!DOCTYPE svg PUBLIC "-//W3C//DTD SVG 1.1//EN" "http://www.w3.org/Graphics/SVG/1.1/DTD/svg11.dtd"><svg t="1713152844294" class="icon" viewBox="0 0 1024 1024" version="1.1" xmlns="http://www.w3.org/2000/svg" p-id="7671" xmlns:xlink="http://www.w3.org/1999/xlink" width="32" height="32"><path d="M409.717669 0h204.564662v1022.811299H409.717669z" fill="#0073BE" p-id="7672"></path><path d="M614.270324 0l157.352813 78.68241V945.31759l-157.352813 78.68241zM252.352849 189.531794L118.605959 149.488175v715.97031l133.74689-30.762145z m731.699588-8.573057l-78.68241-31.470562v715.97031l78.68241-31.470562z" fill="#3695D4" p-id="7673"></path><path d="M614.270324 0l15.729277 7.864639v1007.070014l-15.729277 7.864639z" fill="#3897D7" opacity=".904" p-id="7674"></path><path d="M409.717669 0h15.741285v1022.811299h-15.741285z" fill="#0377C3" opacity=".901" p-id="7675"></path><path d="M409.753691 0L252.400877 78.68241v865.446479L409.753691 1022.811299z m361.917474 190.08412l133.74689-40.595945v715.97031l-133.74689-30.209819V190.08412zM39.935556 180.958737l78.68241-31.470562v715.97031L39.935556 833.975915z" fill="#005B9D" p-id="7676"></path></svg>