<?xml version="1.0" standalone="no"?><!DOCTYPE svg PUBLIC "-//W3C//DTD SVG 1.1//EN" "http://www.w3.org/Graphics/SVG/1.1/DTD/svg11.dtd"><svg t="1647135428979" class="icon" viewBox="0 0 1024 1024" version="1.1" xmlns="http://www.w3.org/2000/svg" p-id="6196" xmlns:xlink="http://www.w3.org/1999/xlink" width="32" height="32"><defs><style type="text/css"></style></defs><path d="M564.236196 871.2571c12.238194 0.127925 24.519031 0.938119 36.671941 2.38794 9.210627 1.066045 9.082702 2.473224 7.462314 10.575165-10.319314 50.9143-31.427001 96.199883-66.904973 133.895228L535.879404 1024h-7.249105c-4.264179-4.903806-8.656284-9.722329-12.877821-14.668777-15.69218-18.463896-27.162822-39.614225-37.226285-61.617389-7.462314-16.374448-14.114433-33.090031-17.696344-50.871659-1.577746-7.84609-2.643791-15.820105-3.923045-23.751478-0.085284-0.554343 0-1.19397 0-1.918881l2.558508-0.127925c34.96627 0 69.889898-0.127925 104.813525 0.213209zM532.681269 0.596985l4.349463 5.244941c28.058299 32.237195 51.426001 67.971017 74.623137 103.875406 23.879404 36.927792 47.247106 74.154077 67.757808 113.128674 38.889315 74.068793 68.99442 151.634213 86.946614 233.932873 5.415508 24.945448 9.466478 50.146748 12.408762 75.561256 3.709836 31.64021 5.074373 63.408345 4.008328 95.219122-1.961522 60.721912-10.404597 120.37778-30.787374 177.688349-7.163821 20.126926-16.203881 39.4863-24.561672 59.698509l-31.768136-19.402016c-9.082702-5.543433-18.122762-11.086866-27.290747-16.545015a9.253269 9.253269 0 0 0-4.477388-1.279254c-52.065628-0.085284-104.131257-0.127925-156.196885 0-23.879404 0.127925-47.758807 0.298493-71.595569 1.108687-14.114433 0.46906-28.228866 2.13209-42.3433 3.624552a23.026568 23.026568 0 0 0-9.04006 3.837761c-15.308403 9.594403-30.488881 19.316732-45.882568 29.124344-0.341134-0.596985-0.596985-0.852836-0.724911-1.236611-9.722329-25.158657-20.084284-50.146748-28.953777-75.64654-9.381194-26.949613-15.009911-54.922628-19.27409-83.194137a588.200883 588.200883 0 0 1-6.310985-108.651287c0.852836-23.197135 2.771716-46.351628 5.287582-69.420837 4.818523-44.347464 14.583493-87.714167 26.864329-130.483885 15.990672-55.647539 38.889315-108.310152 64.900808-159.608228 34.539852-68.184226 73.642375-133.46881 119.311735-194.446573 10.148747-13.645374 20.723911-26.906971 31.128508-40.339136 0.426418-0.554343 0.895478-1.066045 1.577746-1.790955zM248.047306 713.397185c-1.535105 52.705255 12.536687 100.719913 36.88515 146.389273h-3.624552c-29.081702 0-58.163405 0-87.287749-0.170567-5.500791-0.042642-11.086866-0.46906-16.502374-1.321896-2.345299-0.383776-4.477388-2.302657-6.694761-3.496627v-3.112851c1.449821-7.035896 3.070209-14.071791 4.264179-21.107687 1.748313-9.807612 3.155493-19.74315 4.775881-29.593404 1.705672-10.319314 5.884567-19.615224 12.579329-27.37603 9.935538-11.641209 20.297493-22.898642 30.659448-34.156076 7.334388-7.974015 14.881986-15.734821 22.344299-23.538269l2.60115-2.558508z m578.435912 11.726493c3.624552 2.643791 7.035896 5.543433 10.276672 8.613642 8.954776 8.528358 17.568418 17.312568 26.565837 25.755642 13.09103 12.280836 20.46806 27.418672 23.495627 45.2003 2.686433 15.94803 5.884567 31.810777 8.741568 47.716166 0.341134 1.961522 0.042642 4.05097 0.042641 6.737403h-112.574331l9.935537-23.111851c11.555926-26.523195 18.762389-54.368285 23.879404-82.810361 1.492463-8.400433 2.38794-16.88615 3.667194-25.371866 0.639627-4.562672 2.302657-5.415508 5.969851-2.729075z m-299.515949-635.789123a187.325394 187.325394 0 0 0-17.056717 20.041642c-22.259016 30.70209-41.788956 63.365703-60.849837 96.327809-55.562255 96.327809-93.129674 199.179812-107.457317 310.517531-3.198134 24.476389-5.287582 49.038061-5.24494 73.770301 0.042642 18.677105 0.426418 37.396852 1.876238 55.988673 1.279254 17.227284 3.709836 34.411926 6.353627 51.511285 3.837761 25.030732 11.086866 49.165987 17.994837 73.429167 0.767552 2.771716 1.918881 3.539269 4.690597 3.539269l83.108853-0.042642h246.810694c5.969851 0 5.841926-0.042642 7.675523-5.714 18.037478-56.116599 25.45715-113.853585 24.817523-172.784543a725.635379 725.635379 0 0 0-5.756642-83.961689 734.590156 734.590156 0 0 0-68.354793-231.843424c-26.480553-55.263763-56.073957-108.651287-91.082869-158.798035-7.590239-10.788373-15.777463-21.192971-24.092612-31.384359-4.861164-5.927209-8.144582-6.055135-13.432165-0.596985z m147.199467 333.714666c2.771716 28.697926-19.146165 52.10827-47.289748 50.359957-3.667194-0.213209-7.249105-1.535105-10.873657-2.174731-0.980761-0.213209-2.38794-0.170567-2.984925 0.426417-5.841926 5.799284-11.513284 11.726493-17.440493 17.781628 13.56009 18.208045 20.126926 38.633464 19.188806 61.318897-1.023403 22.60015-9.210627 42.258016-25.030732 60.082286 1.066045 0.554343 2.260015 0.852836 3.027568 1.663029 5.714 5.543433 11.385359 11.086866 16.928791 16.800867 1.577746 1.620388 2.984925 1.790955 5.031732 1.236612 31.64021-8.741567 63.578912 10.106105 72.277838 42.513866 9.637045 35.947031-15.265762 72.618972-51.468644 75.774465a59.016241 59.016241 0 0 1-63.792121-52.449404c-1.833597-14.881986 1.279254-28.78321 9.551761-41.277255 1.407179-2.089448 1.19397-3.155493-0.554343-4.818523-5.969851-5.714-11.769135-11.555926-17.61106-17.440493-1.108687-1.108687-1.961522-1.492463-3.624552-0.852836-35.605897 13.773299-67.843092 7.974015-96.58366-17.781627l-1.066045-0.682269c-5.287582 5.415508-10.660448 10.788373-15.777463 16.459732-0.852836 0.938119-0.341134 3.32606-0.213209 4.98909a32.83418 32.83418 0 0 1-10.23403 27.631881c-10.404597 9.807612-22.60015 12.152911-35.563255 6.566836-12.920463-5.628717-19.871075-16.203881-20.126926-30.70209-0.511702-23.964687 22.60015-40.68027 44.47539-32.279837 2.345299 0.895478 3.752478 0.682269 5.458149-1.19397 4.264179-4.690597 8.784209-9.125344 13.218956-13.645374 1.023403-0.980761 1.492463-1.790955 0.810194-3.411343-16.033314-36.074956-12.067627-69.71933 11.726493-100.975764 0.170567-0.213209 0.255851-0.511702 0.511701-0.93812l-1.492463-1.790955c-7.206463-7.37703-14.370284-14.796702-21.66203-22.088448a6.353627 6.353627 0 0 0-4.136254-1.705672 27.802449 27.802449 0 0 1-28.186225-25.158657 27.930374 27.930374 0 0 1 21.192971-30.019822c19.060881-4.605314 36.88515 13.432165 32.407762 32.962105-0.639627 2.729075-0.042642 4.306821 1.790956 6.140418 7.419672 7.419672 14.711418 15.009911 22.344299 22.770718 8.485717-5.031731 17.355209-8.784209 26.864329-10.831016a87.159823 87.159823 0 0 1 64.090614 10.063463c2.174731 1.279254 3.411343 1.151328 5.117015-0.682268 4.605314-5.031731 9.423836-9.892896 14.285-14.668777 1.449821-1.449821 1.705672-2.601149 0.852836-4.562672-11.257433-26.864329 3.624552-56.6283 31.469643-62.939285 25.286583-5.714 50.530524 13.09103 53.089031 39.528941z m-149.587407 51.042226c-39.145165 0-70.913301 32.493046-70.913301 72.57633 0 39.998001 31.938702 72.704256 70.955943 72.704256 39.01724 0 70.955942-32.748896 70.9133-72.704256-0.042642-40.125927-31.768135-72.57633-70.955942-72.57633z m-34.667777 65.028733c6.268343 0.042642 11.300075 5.159657 11.300075 11.555926a11.342717 11.342717 0 1 1-22.685434 0.25585 11.428 11.428 0 0 1 11.385359-11.811776z m33.09003 0a11.513284 11.513284 0 0 1 11.342717 11.555926c0.042642 6.353627-4.98909 11.513284-11.257433 11.598567a11.17215 11.17215 0 0 1-11.385359-11.342717 11.300075 11.300075 0 0 1 11.300075-11.811776z m33.090031 0c6.310985 0 11.257433 5.117015 11.214792 11.641209 0 6.566836-4.903806 11.513284-11.300075 11.513284a11.17215 11.17215 0 0 1-11.214792-11.598567c0-6.481552 4.98909-11.598568 11.300075-11.555926z" fill="#FF5700" p-id="6197"></path></svg>