<?xml version="1.0" standalone="no"?><!DOCTYPE svg PUBLIC "-//W3C//DTD SVG 1.1//EN" "http://www.w3.org/Graphics/SVG/1.1/DTD/svg11.dtd"><svg t="1713152527845" class="icon" viewBox="0 0 1024 1024" version="1.1" xmlns="http://www.w3.org/2000/svg" p-id="3489" xmlns:xlink="http://www.w3.org/1999/xlink" width="32" height="32"><path d="M512 0C213.344 0 0 241.056 0 515.424 0 803.424 213.344 1024 512 1024s512-220.576 512-508.576C1024 241.088 810.656 0 512 0zM361.376 146.784H510.72v139.1h152.736V407.9H510.72v222.72c0 67.424 32.864 96.864 82.336 96.864 17.92 0 41.824-5.12 64.416-13.664 16.224 42.656 44.8 81.056 75.52 111.776-42.976 25.76-94.752 41.088-150.112 41.376h-0.1c-133.12 0-221.44-70.4-221.44-225.28z" fill="#F37440" p-id="3490"></path></svg>