<?xml version="1.0" standalone="no"?><!DOCTYPE svg PUBLIC "-//W3C//DTD SVG 1.1//EN" "http://www.w3.org/Graphics/SVG/1.1/DTD/svg11.dtd"><svg t="1713153467242" class="icon" viewBox="0 0 1024 1024" version="1.1" xmlns="http://www.w3.org/2000/svg" p-id="27095" xmlns:xlink="http://www.w3.org/1999/xlink" width="32" height="32"><path d="M14.243308 512.021688C14.243308 237.117778 237.09609 14.264996 512 14.264996s497.756692 222.852782 497.756692 497.756692-222.852782 497.756692-497.756692 497.756692S14.243308 786.925598 14.243308 512.021688z" fill="#B09292" fill-opacity=".184" p-id="27096"></path><path d="M400.92915 855.260481c13.08389-8.675188-21.190213-5.404216-24.034538-11.235079a213.324297 213.324297 0 0 1-40.104968-7.253026C312.186242 830.514863 253.877601 791.120976 247.762305 754.144765c-6.115297-36.976211 0-108.795391 26.025564-150.891386A241.810201 241.810201 0 0 1 336.789644 537.265063s-50.771183-120.741552-55.179884-211.902135C277.201057 234.202346 283.743003 70.938151 344.04267 67.95161c60.299668-2.98654 49.633453 149.042575 40.104968 247.882833a1272.408322 1272.408322 0 0 0-2.98654 197.538299c25.357148-8.106323 51.752474-12.515025 78.361125-13.08389 23.408786-0.5262 46.789129 1.66393 69.685937 6.541945 0 0 18.772538-140.225171 81.632097-227.545917C673.699817 191.964135 738.834835 102.083498 781.499695 127.540197c42.664859 25.456699-11.519512 116.475066-49.206805 163.83306s-103.106743 118.466093-124.865821 156.437818a671.829318 671.829318 0 0 0-37.687293 78.361125 213.324297 213.324297 0 0 1 91.018367 89.880637c29.438753 60.868533 32.283077 136.385334 16.354863 168.241762a115.19512 115.19512 0 0 1-79.783287 56.886479c-18.772538 1.422162-98.271393 21.047997-98.271393 21.047997l-98.129176-6.968594z" fill="#FFFFFF" p-id="27097"></path><path d="M539.732159 507.968526s47.357994-123.728092 89.880637-193.414029 99.551338-122.163714 117.470579-111.497499c17.919241 10.666215-36.691779 76.085666-84.191989 139.656307a1597.031015 1597.031015 0 0 0-105.808851 175.921436L539.732159 507.968526zM349.731318 529.300956l13.510539-10.666215s-1.848811-123.728092 0-199.102677c1.848811-75.374585 5.830864-169.379492-19.341403-168.383978-25.172267 0.995513-42.664859 73.241342-32.851941 176.063653a1236.114748 1236.114748 0 0 0 38.682805 202.089217z" fill="#DD00A1" p-id="27098"></path><path d="M279.618733 767.228655a27.589942 27.589942 0 1 1 55.179885 0 27.589942 27.589942 0 0 1-55.179885 0zM605.578258 767.228655a27.589942 27.589942 0 1 1 55.179885 0 27.589942 27.589942 0 0 1-55.179885 0z" fill="#F9D8D2" p-id="27099"></path><path d="M515.982054 764.81098a2.702108 2.702108 0 0 0-3.555405 0s-8.106323 14.22162-20.052484 15.074917a30.007618 30.007618 0 0 1-21.33243-9.955134V750.58936c7.679675-4.12427 20.052484-16.923728 20.052484-21.33243a19.910268 19.910268 0 0 0-21.33243-15.501565c-14.22162 0-24.176754 9.244053-24.176753 16.923727 0 7.679675 15.643782 17.492592 20.052484 20.479133v20.621348a25.172267 25.172267 0 0 1-18.488106 9.955134c-11.377296 0-19.910268-15.359349-19.910268-15.501565a2.702108 2.702108 0 0 0-3.555405-1.13773 2.559892 2.559892 0 0 0-1.137729 3.270972c0 0.853297 10.09735 18.34589 24.603402 18.34589a29.438753 29.438753 0 0 0 21.332429-10.239566c6.015745 6.115297 14.05096 9.812918 22.612376 10.381782h1.991027a35.127401 35.127401 0 0 0 24.31897-17.777025 2.559892 2.559892 0 0 0 0-3.555404 3.413189 3.413189 0 0 0-1.422162-0.711081z" fill="#10110E" p-id="27100"></path><path d="M336.789644 537.265063S297.964622 437.713725 289.716083 384.951515c-8.248539-52.762209-14.22162-139.087441-4.266486-196.969434a658.432553 658.432553 0 0 1 16.923727-79.498854S283.743003 243.446398 290.711596 302.466121C297.68019 361.485843 336.789644 537.265063 336.789644 537.265063zM529.20816 506.688581s28.44324-150.606953 69.828153-209.911108 93.293826-130.696686 118.750525-148.900359l25.883348-18.203674S639.283497 238.611048 599.036313 328.776117s-69.828153 177.912463-69.828153 177.912464z" fill="#E5E5E5" p-id="27101"></path><path d="M363.384073 677.348018a21.616862 21.616862 0 1 0 21.616862 21.616862 21.616862 21.616862 0 0 0-21.332429-21.616862h-0.284433z m6.826378 22.157284a7.11081 7.11081 0 0 1-6.570389-4.337595 6.968594 6.968594 0 0 1 1.535935-7.651231 7.167696 7.167696 0 0 1 7.750783-1.521713 7.02548 7.02548 0 0 1 4.394481 6.485058 6.968594 6.968594 0 0 1-1.962584 5.020232 7.153475 7.153475 0 0 1-4.977567 2.175908l-0.170659-0.170659zM575.997289 677.348018a21.616862 21.616862 0 1 0 21.474646 21.759078 21.616862 21.616862 0 0 0-21.474646-21.759078z m7.565902 22.327943a7.11081 7.11081 0 0 1-7.28147-6.940151c0-3.896724 3.057648-7.11081 6.940151-7.281469a7.11081 7.11081 0 0 1 7.281469 6.940151 6.94015 6.94015 0 0 1-6.769491 7.11081l-0.170659 0.170659z" fill="#10110E" p-id="27102"></path><path d="M273.219004 707.213419c0-79.797509 89.781086-144.491657 200.524839-144.491657s200.524839 64.694148 200.524839 144.491657-89.781086 144.491657-200.524839 144.491657-200.524839-64.694148-200.524839-144.491657z" fill="#8ACCCE" fill-opacity=".2" p-id="27103"></path><path d="M716.506892 626.861268v-95.569285a34.985185 34.985185 0 0 0 27.163294-32.56751 37.687292 37.687292 0 0 0-74.947936 0A35.269617 35.269617 0 0 0 696.169976 531.291983v93.151609h-2.844324c-28.44324-98.698041-112.493012-160.419871-222.283917-160.419871-109.790905 0-194.267326 61.152965-222.141701 160.419871h-9.528485A39.251671 39.251671 0 0 0 198.413284 661.135371v73.099126a39.109454 39.109454 0 0 0 40.958265 36.833995h12.941674a184.881057 184.881057 0 0 0 51.055615 72.672477l-18.34589 16.639295a11.092863 11.092863 0 0 0-1.279945 15.643782c41.669346 50.202318 109.790905 79.641071 186.729867 79.641071 76.938963 0 145.202738-28.44324 186.872084-79.641071a11.23508 11.23508 0 0 0-1.279946-15.785998l-18.488105-16.923727a184.881057 184.881057 0 0 0 51.055615-72.245829h14.221619a38.967238 38.967238 0 0 0 40.816049-36.976211v-72.95691a36.691779 36.691779 0 0 0-27.163294-34.274103z m-245.465157-56.886479c101.542365 0 184.02776 66.841613 184.02776 148.900359 0 88.885124-92.582745 127.994578-184.02776 127.994578S287.013975 807.475839 287.013975 718.164067C287.013975 636.816402 369.072721 569.263708 471.041735 569.263708v0.711081z" fill="#FFFFFF" p-id="27104"></path><path d="M723.33327 710.19996H696.169976v-14.22162c0-18.104122-1.848811-36.165579-5.546432-53.899939h11.661729a19.199187 19.199187 0 0 1 20.479132 17.777025l0.568865 50.344534zM702.854137 753.149251h-14.221619c2.702108-10.18268 4.693135-20.550241 5.97308-31.003131h28.44324v12.088377a19.056971 19.056971 0 0 1-19.341403 18.772538h-0.853298v0.142216zM471.041735 936.892579c-68.121559 0-128.847875-24.461186-166.961816-67.979343l18.488106-17.20816a254.140345 254.140345 0 0 0 147.904845 42.66486 252.149319 252.149319 0 0 0 147.904846-42.66486l19.199187 17.20816C599.88961 912.431393 539.732159 936.892579 471.041735 936.892579zM239.371549 642.789482h12.088377a274.90391 274.90391 0 0 0-5.404216 53.899939c-0.284432 4.735799-0.284432 9.48582 0 14.22162H219.603497v-49.77567a18.061457 18.061457 0 0 1 17.634809-18.345889h2.133243z" fill="#515151" p-id="27105"></path><path d="M471.041735 557.033115a251.153805 251.153805 0 0 0-68.121559 9.812917v-74.379071a245.038509 245.038509 0 0 1 68.121559-9.101837 246.034022 246.034022 0 0 1 68.263775 9.101837v74.80572a226.265971 226.265971 0 0 0-68.263775-10.239566z" p-id="27106"></path><path d="M218.892416 722.14612h28.44324c1.393719 10.353339 3.441632 20.621349 6.115296 30.718699h-14.221619a19.199187 19.199187 0 0 1-20.479133-17.777025V722.14612h0.142216zM689.201382 498.724473c0-8.476085 7.63701-15.359349 17.065944-15.359349 9.428934 0 17.065944 6.883264 17.065944 15.359349 0 8.476085-7.63701 15.359349-17.065944 15.35935-9.428934 0-17.065944-6.883264-17.065944-15.35935z" fill="#515151" p-id="27107"></path></svg>