<?xml version="1.0" standalone="no"?><!DOCTYPE svg PUBLIC "-//W3C//DTD SVG 1.1//EN" "http://www.w3.org/Graphics/SVG/1.1/DTD/svg11.dtd"><svg t="1713153266879" class="icon" viewBox="0 0 1024 1024" version="1.1" xmlns="http://www.w3.org/2000/svg" p-id="21982" xmlns:xlink="http://www.w3.org/1999/xlink" width="32" height="32"><path d="M131.657143 204.8h760.685714v204.8H131.657143V204.8z m0 409.6h760.685714v204.8H131.657143v-204.8z" fill="#FF6E6E" p-id="21983" data-spm-anchor-id="a313x.search_index.0.i18.61df3a81ezphPI" class=""></path><path d="M131.657143 0h760.685714v204.8H131.657143V0z m0 409.6h760.685714v204.8H131.657143v-204.8z m0 409.6h760.685714v204.8H131.657143v-204.8z" fill="#1296db" p-id="21984" data-spm-anchor-id="a313x.search_index.0.i16.61df3a81ezphPI" class=""></path><path d="M234.057143 877.714286a43.885714 43.885714 0 1 1 0 87.771428 43.885714 43.885714 0 0 1 0-87.771428z m0-204.8a43.885714 43.885714 0 1 1 0 87.771428 43.885714 43.885714 0 0 1 0-87.771428z m0-204.8a43.885714 43.885714 0 1 1 0 87.771428 43.885714 43.885714 0 0 1 0-87.771428z m0-204.8a43.885714 43.885714 0 1 1 0 87.771428 43.885714 43.885714 0 0 1 0-87.771428z m0-204.8a43.885714 43.885714 0 1 1 0 87.771428 43.885714 43.885714 0 0 1 0-87.771428z" fill="#FFFFFF" p-id="21985"></path></svg>