<?xml version="1.0" standalone="no"?><!DOCTYPE svg PUBLIC "-//W3C//DTD SVG 1.1//EN" "http://www.w3.org/Graphics/SVG/1.1/DTD/svg11.dtd"><svg t="1647140101515" class="icon" viewBox="0 0 1024 1024" version="1.1" xmlns="http://www.w3.org/2000/svg" p-id="26521" id="mx_n_1647140101515" xmlns:xlink="http://www.w3.org/1999/xlink" width="32" height="32"><defs><style type="text/css"></style></defs><path d="M 363.52 990.72 c -17.92 12.8 -30.72 20.48 -51.2 33.28 c -148.48 -23.04 -120.32 -122.88 -143.36 -202.24 c 7.68 -2.56 10.24 -5.12 12.8 -5.12 c 69.12 20.48 71.68 20.48 74.24 -48.64 c 2.56 -94.72 0 -189.44 0 -284.16 c 0 -15.36 7.68 -30.72 12.8 -46.08 l 12.8 2.56 v 389.12 c 43.52 -2.56 58.88 15.36 58.88 53.76 c 0 28.16 17.92 53.76 23.04 81.92 c 2.56 10.24 2.56 17.92 0 25.6 Z" fill="#c07021" p-id="26522" data-spm-anchor-id="a313x.7781069.0.i41" class=""></path><path d="M 727.04 983.04 c -33.28 -2.56 -66.56 -10.24 -97.28 -7.68 c -38.4 2.56 -48.64 -17.92 -43.52 -46.08 c 5.12 -35.84 17.92 -69.12 28.16 -107.52 c 17.92 33.28 35.84 38.4 61.44 -2.56 c 2.56 28.16 5.12 48.64 7.68 69.12 c 10.24 -5.12 17.92 -7.68 25.6 -10.24 c 23.04 -5.12 46.08 -15.36 69.12 -12.8 c 35.84 5.12 23.04 35.84 28.16 58.88 c 0 5.12 5.12 7.68 10.24 12.8 v 43.52 c -30.72 2.56 -61.44 2.56 -89.6 2.56 Z" fill="#9d550c" p-id="26523"></path><path d="M 622.08 25.6 c 23.04 15.36 46.08 30.72 66.56 51.2 c 7.68 7.68 10.24 33.28 7.68 38.4 c -40.96 25.6 -17.92 76.8 -43.52 104.96 c -5.12 -20.48 -2.56 -48.64 -15.36 -64 c -12.8 -15.36 -40.96 -17.92 -64 -25.6 c -43.52 -12.8 -51.2 -5.12 -43.52 38.4 v 20.48 c -2.56 0 -7.68 2.56 -10.24 2.56 c -7.68 -20.48 -12.8 -38.4 -20.48 -58.88 c -7.68 -17.92 -15.36 -38.4 -28.16 -64 c 25.6 -15.36 53.76 -28.16 81.92 -43.52 h 69.12 Z" fill="#c07021" p-id="26524" data-spm-anchor-id="a313x.7781069.0.i40" class=""></path><path d="M 491.52 819.2 c 10.24 48.64 23.04 97.28 33.28 145.92 c -12.8 7.68 -23.04 12.8 -33.28 20.48 h -89.6 c -25.6 -15.36 -25.6 -84.48 -2.56 -107.52 c 5.12 -5.12 17.92 -7.68 17.92 -12.8 c -2.56 -58.88 48.64 -35.84 74.24 -46.08 Z" fill="#8f4f0b" p-id="26525"></path><path d="M 465.92 819.2 c -33.28 -17.92 -66.56 -33.28 -87.04 -43.52 c 15.36 -148.48 89.6 -268.8 76.8 -409.6 c -43.52 25.6 -87.04 48.64 -128 71.68 c -7.68 2.56 -17.92 2.56 -28.16 2.56 c 7.68 -56.32 46.08 -87.04 89.6 -110.08 c 48.64 -23.04 99.84 -40.96 117.76 -102.4 c 20.48 30.72 38.4 58.88 66.56 97.28 c 25.6 -40.96 43.52 -69.12 66.56 -107.52 c 30.72 33.28 66.56 71.68 99.84 112.64 c 35.84 43.52 10.24 122.88 -46.08 138.24 c -30.72 7.68 -43.52 20.48 -28.16 53.76 c 5.12 12.8 -2.56 28.16 0 43.52 c 5.12 25.6 15.36 51.2 20.48 76.8 c 7.68 30.72 10.24 64 15.36 94.72 c 2.56 12.8 7.68 23.04 12.8 43.52 c -28.16 7.68 -64 23.04 -99.84 25.6 c -35.84 2.56 -64 -17.92 -58.88 -64 c 2.56 -35.84 0 -71.68 -7.68 -107.52 c -7.68 48.64 -15.36 99.84 -23.04 143.36 c -23.04 12.8 -40.96 28.16 -58.88 40.96 c -2.56 0 0 0 0 0 Z" fill="#4a7b33" p-id="26526"></path></svg>